<?xml version="1.0" encoding="UTF-8"?>
<svg version="1.1" xmlns="http://www.w3.org/2000/svg" width="708" height="708">
<path d="M0 0 C233.64 0 467.28 0 708 0 C708 233.64 708 467.28 708 708 C474.36 708 240.72 708 0 708 C0 474.36 0 240.72 0 0 Z " fill="#FEFEFE" transform="translate(0,0)"/>
<path d="M0 0 C0.33 44.22 0.66 88.44 1 134 C2.98 134 4.96 134 7 134 C7.33 89.78 7.66 45.56 8 0 C25.73199366 8.86599683 37.82769317 24.44257903 46.875 41.625 C47.32721924 42.48311279 47.77943848 43.34122559 48.24536133 44.2253418 C54.76648544 56.99400193 54.76648544 56.99400193 56 63 C54.8063901 66.29197683 52.97377843 68.19018301 50.4375 70.5625 C45.5156937 75.37808027 41.23302488 80.57515258 37 86 C36.5678418 86.55042969 36.13568359 87.10085937 35.69042969 87.66796875 C25.15281372 101.19136919 16.47429481 115.69236387 11 132 C12.65 131.67 14.3 131.34 16 131 C16.0928125 130.31035156 16.185625 129.62070313 16.28125 128.91015625 C20.14762743 113.25553024 34.12361294 99.32925536 45 88 C45.91007812 87.04867187 46.82015625 86.09734375 47.7578125 85.1171875 C62.96576256 69.56261749 81.01671207 56.57903619 100 46 C100.73863281 45.58621094 101.47726562 45.17242187 102.23828125 44.74609375 C115.04587097 37.63076613 127.84816523 31.91896963 142 28 C141.00381316 33.54456625 139.51021847 38.37291427 137.11132812 43.46362305 C135.9920229 46.01820609 135.09114774 48.56365384 134.2265625 51.21484375 C133.87770996 52.27018311 133.52885742 53.32552246 133.16943359 54.4128418 C132.34248655 56.94944574 131.52591144 59.48812513 130.71728516 62.03051758 C129.54158724 65.70463293 128.29856663 69.3516436 127.02294922 72.9921875 C126.50765686 74.49737504 126.01374548 76.01005244 125.54150391 77.52929688 C123.02900563 85.55960796 120.82774816 91.70111919 113.09454346 95.78143311 C110.40276779 97.01631554 107.66633876 98.09451883 104.90309143 99.15753174 C99.69442899 101.46332363 95.3563104 105.40269536 91 109 C90.21238281 109.62390625 89.42476563 110.2478125 88.61328125 110.890625 C81.12508764 117.11118374 75.3767679 124.93484815 70 133 C70 133.99 70 134.98 70 136 C72.86147022 134.71131961 74.80806193 133.40200961 76.92578125 131.09375 C77.46686523 130.51963379 78.00794922 129.94551758 78.56542969 129.35400391 C79.14196289 128.74218262 79.71849609 128.13036133 80.3125 127.5 C112.63754168 94.40289039 163.70031462 89.86446654 207.14831543 84.02731323 C215.61280506 82.88881806 224.07663393 81.74434152 232.5234375 80.48046875 C233.26888824 80.3752742 234.01433899 80.27007965 234.78237915 80.16169739 C239.84909583 79.3818324 244.23748066 77.90060818 249 76 C251.43642795 75.26725918 253.87392082 74.53804934 256.3125 73.8125 C263.59779395 71.51962462 269.07706237 67.82570278 275 63 C275.99 62.34 276.98 61.68 278 61 C276.88897637 89.83106316 263.7150167 118.67813794 246.26171875 141.32714844 C244.96736807 143.04326509 243.74968957 144.79970706 242.53125 146.5703125 C236.7906146 154.60765776 236.7906146 154.60765776 232.62890625 155.51953125 C230.125 155.25 230.125 155.25 227.3515625 154.6640625 C199.57943513 149.16142654 170.6483269 162.47780831 148.078125 177.56640625 C144.67158099 179.91640935 141.34049994 182.34895351 138.0625 184.875 C137.48894775 185.31505371 136.91539551 185.75510742 136.32446289 186.20849609 C133.08056783 188.80816082 130.90195069 191.30213071 129 195 C129.6084375 194.59910156 130.216875 194.19820312 130.84375 193.78515625 C149.3804618 181.76355345 168.47972775 171.42664874 190 166 C190.77988281 165.79890625 191.55976562 165.5978125 192.36328125 165.390625 C210.91549533 162.64214884 229.15217809 165.92982125 244.6171875 176.84765625 C247.14633197 178.82921336 249.57759622 180.88966112 252 183 C252.81082031 183.66644531 253.62164063 184.33289063 254.45703125 185.01953125 C272.55891471 200.38475202 284.35994535 222.78067752 296.33984375 242.87890625 C319.30464487 281.96968842 319.30464487 281.96968842 354 310 C331.82487129 328.55245916 293.09067757 328.76185034 266 327 C243.45486231 324.61897566 243.45486231 324.61897566 239.59765625 320.50390625 C239.09105469 319.86324219 238.58445312 319.22257812 238.0625 318.5625 C219.91685042 297.30399839 190.98227558 283.99550047 164 279 C163.28199219 278.8659375 162.56398438 278.731875 161.82421875 278.59375 C155.28075131 277.58490705 148.59960107 277.91657808 142 278 C141.01 279.98 140.02 281.96 139 284 C140.0209375 283.94779297 140.0209375 283.94779297 141.0625 283.89453125 C150.01118757 283.64463439 158.32555376 285.04069289 167 287 C168.12019531 287.24363281 169.24039063 287.48726563 170.39453125 287.73828125 C186.22639076 291.70094122 201.64782097 299.34141333 214 310 C214.91652344 310.75667969 215.83304688 311.51335937 216.77734375 312.29296875 C228.45554436 322.33327306 237.0983919 334.89126522 245 348 C245.43054688 348.70253906 245.86109375 349.40507812 246.3046875 350.12890625 C262.6503955 379.462483 251.94302839 418.26255813 245.65429688 448.81738281 C237.7463755 487.28292874 234.84430346 519.36293955 248 557 C232.95803204 555.38506479 219.22090571 552.14673809 205 547 C204.17709473 546.70496582 203.35418945 546.40993164 202.50634766 546.10595703 C178.54766121 537.37659877 156.17653053 525.11768702 135 511 C134.57104492 508.74780273 134.57104492 508.74780273 134.48046875 505.93359375 C134.43156494 504.89936279 134.38266113 503.86513184 134.33227539 502.79956055 C134.26061157 501.13534058 134.26061157 501.13534058 134.1875 499.4375 C132.39659604 471.53699727 117.52451958 447.92803601 99.11254883 427.47387695 C98 426 98 426 98 424 C96.35 424.66 94.7 425.32 93 426 C93 430.76355631 93.79807019 431.37320177 96.75 434.9375 C112.24909711 454.61949356 125.77638154 481.31847079 123 507 C117.04704591 540.50086925 92.50794608 569.10053944 70.265625 593.48828125 C68.39500922 595.56208461 66.55728527 597.65685378 64.7265625 599.765625 C60.95632123 604.08275287 57.06027622 608.2709321 53.125 612.4375 C52.42318604 613.18249756 51.72137207 613.92749512 50.99829102 614.69506836 C46.69778611 619.246175 42.32422027 623.70730245 37.8671875 628.10546875 C35.41903412 630.58947375 33.14236817 633.1955721 30.87890625 635.84765625 C29.48232414 637.44748315 28.04598064 639.01277582 26.58984375 640.55859375 C21.43256066 646.04258255 17.12733646 651.50342219 13.27734375 657.98046875 C12.85582031 658.64691406 12.43429687 659.31335938 12 660 C11.67 660 11.34 660 11 660 C10.36701837 638.8571925 9.87410105 617.71144631 9.5 596.5625 C9.47880096 595.392565 9.45760193 594.22263 9.4357605 593.01724243 C9.10798233 574.46364185 8.94872601 555.91085705 8.84264374 537.35473061 C8.82032398 533.55664057 8.79606267 529.75856824 8.77105713 525.960495 C8.76277515 524.70011319 8.75449318 523.43973139 8.74596024 522.1411562 C8.72910011 519.58390908 8.7121499 517.02666255 8.69511032 514.46941662 C8.64531545 506.79301976 8.60964572 499.11670475 8.58346748 491.44019318 C8.56395297 486.59835664 8.53221619 481.75665368 8.49737167 476.91490555 C8.48356384 474.6256325 8.47504221 472.33632112 8.47195816 470.04700851 C8.46707428 466.89037828 8.44400905 463.73438307 8.41650391 460.57788086 C8.41950752 459.64486932 8.42251114 458.71185778 8.42560577 457.75057316 C8.40897007 456.47368704 8.40897007 456.47368704 8.39199829 455.17100525 C8.38868814 454.43314757 8.385378 453.6952899 8.38196754 452.9350729 C7.89861216 450.4863625 6.87982504 449.57891554 5 448 C2.3094472 449.22007944 2.3094472 449.22007944 0 451 C-0.12266725 453.71783827 -0.17999763 456.41136203 -0.19618225 459.13063049 C-0.20520378 459.99311447 -0.21422531 460.85559844 -0.22352022 461.74421829 C-0.25277133 464.6570097 -0.27490497 467.56981304 -0.29711914 470.48266602 C-0.31654559 472.56160883 -0.33640732 474.64054763 -0.35667419 476.71948242 C-0.41063681 482.38243217 -0.45847168 488.04541942 -0.50525212 493.70843244 C-0.55510901 499.61953234 -0.61053802 505.53057985 -0.66539001 511.44163513 C-0.76848576 522.64363928 -0.86652994 533.8456818 -0.96278423 545.0477466 C-1.07257916 557.79726052 -1.18796757 570.54672187 -1.30383885 583.2961818 C-1.54214107 609.53073393 -1.77337662 635.76534457 -2 662 C-4.7761285 660.61193575 -4.98723831 658.64359613 -6.11132812 655.89013672 C-7.5294821 652.87383231 -9.57450297 650.570914 -11.75 648.0625 C-12.22099121 647.51819336 -12.69198242 646.97388672 -13.17724609 646.41308594 C-21.76893785 636.58058697 -30.78511377 627.10679805 -40.0859375 617.9453125 C-42.62300721 615.36682124 -44.96613738 612.64316701 -47.3203125 609.8984375 C-48.98204576 608.02029247 -50.71125525 606.25694484 -52.5 604.5 C-55.53935459 601.50792426 -58.35182234 598.37665981 -61.1328125 595.14453125 C-63.13153645 592.84892571 -65.18945229 590.615204 -67.25 588.375 C-72.83344939 582.16907146 -77.96293589 575.6520504 -83 569 C-83.53206055 568.2977832 -84.06412109 567.59556641 -84.61230469 566.87207031 C-99.26769474 547.39186049 -114.44813045 525.3868432 -114.3125 500.25 C-114.30512817 498.64656738 -114.30512817 498.64656738 -114.29760742 497.01074219 C-114.18774686 489.6303661 -113.62347053 482.9569765 -111 476 C-110.67128906 475.08347656 -110.34257812 474.16695313 -110.00390625 473.22265625 C-104.73688609 459.64504373 -97.57058515 447.13442312 -88.81030273 435.5324707 C-88.31473877 434.86562256 -87.8191748 434.19877441 -87.30859375 433.51171875 C-86.86314209 432.92865967 -86.41769043 432.34560059 -85.95874023 431.74487305 C-84.67896251 429.7475433 -84.67896251 429.7475433 -85 426 C-86.92022703 424.22590192 -86.92022703 424.22590192 -89 423 C-89.2165625 423.52078125 -89.433125 424.0415625 -89.65625 424.578125 C-91.53390022 427.96226202 -94.03211506 430.78884613 -96.5 433.75 C-102.3360325 440.89381948 -107.3065038 448.37255354 -111.99707031 456.30664062 C-112.83368388 457.71918973 -113.69161039 459.11908816 -114.5546875 460.515625 C-120.52016768 470.51984642 -127.42847051 486.2058366 -125.41796875 497.99609375 C-124.7648642 502.77334027 -124.53279553 506.70562296 -127 511 C-134.48735512 517.94861962 -144.12288592 522.45632493 -153.15875244 527.05474854 C-155.91281162 528.46861516 -158.63144972 529.94725017 -161.35546875 531.41796875 C-174.77026815 538.51895132 -188.66320466 544.06050205 -203 549 C-203.67627441 549.23686523 -204.35254883 549.47373047 -205.04931641 549.71777344 C-215.40977719 553.31030791 -226.97135939 556.34091625 -238 556 C-237.59788859 550.9736074 -236.6066619 546.51138396 -235.125 541.6875 C-227.04689237 514.06273046 -229.94853672 487.21177659 -235.52392578 459.42382812 C-236.19654498 455.99933406 -236.78657201 452.56504055 -237.375 449.125 C-239.06435826 439.31121887 -241.00994952 429.54442139 -242.93115234 419.77392578 C-243.1833252 418.48470215 -243.43549805 417.19547852 -243.6953125 415.8671875 C-243.92234863 414.71331543 -244.14938477 413.55944336 -244.38330078 412.37060547 C-247.27883442 396.54489786 -247.63964783 379.50321347 -243 364 C-242.68289062 362.79601562 -242.36578125 361.59203125 -242.0390625 360.3515625 C-237.92037965 346.1844619 -229.33817353 335.21396385 -220 324 C-219.34257812 323.154375 -218.68515625 322.30875 -218.0078125 321.4375 C-216.19980964 319.24257046 -214.41336156 317.45759967 -212.25 315.625 C-209.15344564 312.98979643 -209.15344564 312.98979643 -206.125 310.27734375 C-197.76166884 302.62838046 -188.71029842 296.72889224 -178 293 C-176.77796875 292.52433594 -175.5559375 292.04867188 -174.296875 291.55859375 C-169.77296064 289.85868904 -165.17396268 288.59038034 -160.5 287.375 C-159.69691406 287.1584375 -158.89382812 286.941875 -158.06640625 286.71875 C-150.86464586 284.82785019 -143.97767106 283.85252647 -136.5 283.9375 C-135.4584375 283.94652344 -134.416875 283.95554687 -133.34375 283.96484375 C-132.18359375 283.98224609 -132.18359375 283.98224609 -131 284 C-131.99 282.02 -132.98 280.04 -134 278 C-142.92703551 277.76229787 -151.26505446 278.11978417 -160 280 C-161.83498047 280.38478516 -161.83498047 280.38478516 -163.70703125 280.77734375 C-187.03320354 285.96866277 -217.8173466 299.42313625 -231.4140625 320.15625 C-236.87925855 326.50987693 -253.02532548 326.23599828 -261 327 C-266.19127844 327.30181087 -271.36306783 327.38201162 -276.5625 327.375 C-277.25321594 327.37445618 -277.94393188 327.37391235 -278.65557861 327.37335205 C-302.62350853 327.28726777 -324.58277994 321.67077042 -346 311 C-343.61410936 308.3708113 -341.0466247 306.73979106 -338 304.9375 C-323.95450999 296.10572557 -314.60244233 283.78782406 -305.5625 270.125 C-304.88364746 269.10341797 -304.20479492 268.08183594 -303.50537109 267.02929688 C-295.95958227 255.57337039 -288.9087689 243.82262269 -281.84472656 232.06640625 C-265.37258272 204.68550014 -245.93398357 174.35786894 -213 166 C-212.26652344 165.81050781 -211.53304687 165.62101563 -210.77734375 165.42578125 C-180.0611488 160.71682872 -150.78071244 175.18252774 -126 192 C-129.44603781 180.57366409 -146.86476748 173.13569955 -156.6484375 167.76953125 C-164.18486523 163.77925951 -171.90234497 160.64749226 -180 158 C-180.65210449 157.77844238 -181.30420898 157.55688477 -181.97607422 157.32861328 C-195.05283944 153.00283924 -209.33036956 152.52716475 -222.8828125 154.8046875 C-226.20068063 155.19763639 -226.66070735 155.2469031 -229.49609375 153.18359375 C-230.13675781 152.27738281 -230.77742188 151.37117187 -231.4375 150.4375 C-232.17742187 149.42171875 -232.91734375 148.4059375 -233.6796875 147.359375 C-234.05706055 146.81087891 -234.43443359 146.26238281 -234.82324219 145.69726562 C-236.01357188 143.98042496 -237.25162055 142.30974533 -238.5078125 140.640625 C-254.48424133 119.21136491 -271.19878854 88.57213651 -270 61 C-269.34 61 -268.68 61 -268 61 C-267.29875 61.721875 -266.5975 62.44375 -265.875 63.1875 C-259.78985645 69.44953726 -252.2054097 72.44612692 -244 75 C-242.75605469 75.39058594 -241.51210937 75.78117187 -240.23046875 76.18359375 C-223.12066631 81.23785959 -205.24610484 83.1618186 -187.61865234 85.60888672 C-107.35127131 96.75699372 -107.35127131 96.75699372 -78 122 C-77.16082031 122.70253906 -76.32164062 123.40507812 -75.45703125 124.12890625 C-72.04621824 127.06120389 -68.88695781 129.99405964 -66.0625 133.5 C-65.381875 134.325 -64.70125 135.15 -64 136 C-63.34 136 -62.68 136 -62 136 C-62.96739856 130.08504879 -67.44251941 125.61441323 -71 121 C-71.78890625 119.95585937 -71.78890625 119.95585937 -72.59375 118.890625 C-81.80910386 107.51248401 -95.44555009 98.43403382 -109.06445312 93.20776367 C-111.70111814 91.56250865 -112.11414341 90.02296151 -113.1484375 87.1171875 C-113.5108252 86.12299805 -113.87321289 85.12880859 -114.24658203 84.10449219 C-114.61895996 83.03875977 -114.99133789 81.97302734 -115.375 80.875 C-116.17179509 78.66924196 -116.96867014 76.46351281 -117.765625 74.2578125 C-118.14912109 73.18047852 -118.53261719 72.10314453 -118.92773438 70.99316406 C-120.27731503 67.22589201 -121.69728154 63.48811586 -123.125 59.75 C-125.42795423 53.60878872 -127.63838112 47.43796226 -129.8125 41.25 C-130.11494629 40.39116211 -130.41739258 39.53232422 -130.72900391 38.64746094 C-131.01050293 37.84083008 -131.29200195 37.03419922 -131.58203125 36.203125 C-131.83186768 35.48801758 -132.0817041 34.77291016 -132.33911133 34.03613281 C-132.98713617 32.0396322 -133.51648235 30.04196535 -134 28 C-121.05339487 31.98821908 -108.84615563 36.40046219 -97 43 C-96.32018066 43.37495605 -95.64036133 43.74991211 -94.93994141 44.13623047 C-60.00994827 63.56335892 -23.8435411 91.8140667 -7.140625 129.1015625 C-6.07874532 131.33504708 -6.07874532 131.33504708 -3 132 C-3.93132007 129.43510233 -4.86978507 126.87320794 -5.8125 124.3125 C-6.20405273 123.2306543 -6.20405273 123.2306543 -6.60351562 122.12695312 C-8.08035322 118.13402184 -9.68005404 114.59217439 -12 111 C-12.66773438 109.86949219 -13.33546875 108.73898438 -14.0234375 107.57421875 C-23.16823284 92.34273264 -34.43595644 78.56404356 -47 66 C-46.213861 45.16731657 -29.28055009 23.89731499 -15 10 C-3.42707982 0 -3.42707982 0 0 0 Z " fill="#016839" transform="translate(351,30)"/>
<path d="M0 0 C0.33 44.22 0.66 88.44 1 134 C2.98 134 4.96 134 7 134 C7.33 89.78 7.66 45.56 8 0 C25.73199366 8.86599683 37.82769317 24.44257903 46.875 41.625 C47.32721924 42.48311279 47.77943848 43.34122559 48.24536133 44.2253418 C54.76648544 56.99400193 54.76648544 56.99400193 56 63 C54.8063901 66.29197683 52.97377843 68.19018301 50.4375 70.5625 C45.5156937 75.37808027 41.23302488 80.57515258 37 86 C36.5678418 86.55042969 36.13568359 87.10085937 35.69042969 87.66796875 C25.15281372 101.19136919 16.47429481 115.69236387 11 132 C12.65 131.67 14.3 131.34 16 131 C16.0928125 130.31035156 16.185625 129.62070313 16.28125 128.91015625 C20.14762743 113.25553024 34.12361294 99.32925536 45 88 C45.91007812 87.04867187 46.82015625 86.09734375 47.7578125 85.1171875 C62.96576256 69.56261749 81.01671207 56.57903619 100 46 C100.73863281 45.58621094 101.47726562 45.17242187 102.23828125 44.74609375 C115.04587097 37.63076613 127.84816523 31.91896963 142 28 C141.00381316 33.54456625 139.51021847 38.37291427 137.11132812 43.46362305 C135.9920229 46.01820609 135.09114774 48.56365384 134.2265625 51.21484375 C133.87770996 52.27018311 133.52885742 53.32552246 133.16943359 54.4128418 C132.34248655 56.94944574 131.52591144 59.48812513 130.71728516 62.03051758 C129.54158724 65.70463293 128.29856663 69.3516436 127.02294922 72.9921875 C126.50765686 74.49737504 126.01374548 76.01005244 125.54150391 77.52929688 C123.02900563 85.55960796 120.82774816 91.70111919 113.09454346 95.78143311 C110.40276779 97.01631554 107.66633876 98.09451883 104.90309143 99.15753174 C99.69442899 101.46332363 95.3563104 105.40269536 91 109 C90.21238281 109.62390625 89.42476563 110.2478125 88.61328125 110.890625 C81.12508764 117.11118374 75.3767679 124.93484815 70 133 C70 133.99 70 134.98 70 136 C72.86147022 134.71131961 74.80806193 133.40200961 76.92578125 131.09375 C77.46686523 130.51963379 78.00794922 129.94551758 78.56542969 129.35400391 C79.14196289 128.74218262 79.71849609 128.13036133 80.3125 127.5 C112.63754168 94.40289039 163.70031462 89.86446654 207.14831543 84.02731323 C215.61280506 82.88881806 224.07663393 81.74434152 232.5234375 80.48046875 C233.26888824 80.3752742 234.01433899 80.27007965 234.78237915 80.16169739 C239.84909583 79.3818324 244.23748066 77.90060818 249 76 C251.43642795 75.26725918 253.87392082 74.53804934 256.3125 73.8125 C263.59779395 71.51962462 269.07706237 67.82570278 275 63 C275.99 62.34 276.98 61.68 278 61 C276.88897637 89.83106316 263.7150167 118.67813794 246.26171875 141.32714844 C244.96736807 143.04326509 243.74968957 144.79970706 242.53125 146.5703125 C236.7906146 154.60765776 236.7906146 154.60765776 232.62890625 155.51953125 C230.125 155.25 230.125 155.25 227.3515625 154.6640625 C199.57785677 149.16111381 170.64692258 162.4779174 148.078125 177.57080078 C144.67919315 179.90836505 141.34171261 182.3096594 138.0625 184.8125 C137.48894775 185.2441748 136.91539551 185.67584961 136.32446289 186.12060547 C132.68005106 189.01902658 130.88847091 191.7872572 129 196 C127.37660195 197.70884005 125.70680947 199.37446717 124 201 C118.55393468 206.34082734 117.0977808 212.17168585 115.1875 219.4375 C114.87619141 220.54416016 114.56488281 221.65082031 114.24414062 222.79101562 C111.24383531 232.92355597 111.24383531 232.92355597 113.90625 242.7265625 C114.75589905 244.03585503 115.62126241 245.33505012 116.5 246.625 C116.94762695 247.31505127 117.39525391 248.00510254 117.85644531 248.71606445 C119.64243438 251.46877865 121.46162611 254.19834417 123.29101562 256.92236328 C124.45844568 258.66838805 125.60471553 260.42690786 126.75 262.1875 C127.42546875 263.19167969 128.1009375 264.19585937 128.796875 265.23046875 C130 268 130 268 129.28417969 270.33374023 C127.91327068 273.1800705 126.36700942 275.77338673 124.65625 278.4296875 C123.99189941 279.46488525 123.32754883 280.50008301 122.64306641 281.56665039 C121.93585449 282.65840576 121.22864258 283.75016113 120.5 284.875 C119.76846691 286.01082501 119.0371858 287.14681234 118.30615234 288.28295898 C114.08762662 294.82827355 109.81263338 301.33317475 105.46044922 307.7902832 C101.98418133 312.96771919 98.67584309 318.24486378 95.39697266 323.54907227 C95.0107373 324.17354248 94.62450195 324.7980127 94.2265625 325.44140625 C93.89221191 325.98482666 93.55786133 326.52824707 93.21337891 327.08813477 C92.81296387 327.71905029 92.41254883 328.34996582 92 329 C91.14269287 330.48222046 91.14269287 330.48222046 90.26806641 331.99438477 C87.62508528 335.49683263 85.41798294 336.75315368 81.484375 338.6484375 C80.86854553 338.95069244 80.25271606 339.25294739 79.6182251 339.56436157 C77.66919947 340.51666521 75.71021949 341.44599288 73.75 342.375 C72.41854561 343.02064199 71.0878077 343.66776373 69.7578125 344.31640625 C66.51423139 345.89775315 63.25812297 347.44750015 60 349 C69.24 349.33 78.48 349.66 88 350 C87 353 87 353 84.63916016 354.44213867 C83.61612793 354.9291626 82.5930957 355.41618652 81.5390625 355.91796875 C80.42789062 356.44970703 79.31671875 356.98144531 78.171875 357.52929688 C77.00140625 358.07650391 75.8309375 358.62371094 74.625 359.1875 C73.46226562 359.74630859 72.29953125 360.30511719 71.1015625 360.88085938 C62.41062843 365 62.41062843 365 59 365 C59 365.66 59 366.32 59 367 C68.57 367 78.14 367 88 367 C88 380 88 380 86.171875 383.28125 C85.37265625 384.0134375 84.5734375 384.745625 83.75 385.5 C82.96109375 386.2528125 82.1721875 387.005625 81.359375 387.78125 C80.58078125 388.5134375 79.8021875 389.245625 79 390 C76.45682574 392.69014821 75.1037631 394.24034849 74.59692383 397.95092773 C74.63325928 399.01770752 74.66959473 400.0844873 74.70703125 401.18359375 C74.71541016 402.35857422 74.72378906 403.53355469 74.73242188 404.74414062 C74.78573351 407.20297724 74.85860175 409.66146888 74.95117188 412.11914062 C74.96559049 420.89046357 74.96559049 420.89046357 72.32299805 423.92700195 C69.96057879 425.5001113 67.53782742 426.7314386 65 428 C63.29281935 429.1856855 61.59919745 430.39107589 59.91796875 431.61328125 C43.56948488 442.5122705 30.18982005 443.76182376 11.13160706 443.16941833 C5.46808588 442.99468867 -0.15410848 443.07054936 -5.81640625 443.2578125 C-8.22709023 443.32136387 -10.63783274 443.3806154 -13.04867554 443.43780518 C-14.5716098 443.47852118 -16.09432995 443.52857616 -17.61660767 443.58905029 C-28.86088665 444.00337861 -36.37138782 441.82833385 -46 436 C-46.78665039 435.55285645 -47.57330078 435.10571289 -48.38378906 434.64501953 C-50.26002995 433.56983456 -52.10165585 432.45494226 -53.9375 431.3125 C-55.13366614 430.57869558 -56.33027888 429.84561865 -57.52734375 429.11328125 C-58.37594971 428.59241943 -58.37594971 428.59241943 -59.24169922 428.06103516 C-62.1297686 426.3182485 -65.06424706 424.66096877 -68 423 C-67.34 422.67 -66.68 422.34 -66 422 C-65.9055674 417.70670553 -65.91300028 413.41913306 -65.9375 409.125 C-65.89592773 407.31902344 -65.89592773 407.31902344 -65.85351562 405.4765625 C-65.94667968 398.61968794 -66.63310009 394.60349774 -71.31640625 389.4296875 C-72.87202195 387.94724508 -74.43310668 386.47051728 -76 385 C-80 380 -80 380 -80 367 C-71.09 367 -62.18 367 -53 367 C-53 366.34 -53 365.68 -53 365 C-54.32475342 364.8299646 -54.32475342 364.8299646 -55.67626953 364.65649414 C-58.9614435 364.00761557 -61.24579232 363.07170413 -64.1796875 361.49609375 C-65.1078125 361.00302734 -66.0359375 360.50996094 -66.9921875 360.00195312 C-67.94351562 359.48568359 -68.89484375 358.96941406 -69.875 358.4375 C-70.84953125 357.91736328 -71.8240625 357.39722656 -72.828125 356.86132812 C-75.22292498 355.58175363 -77.61324282 354.2944962 -80 353 C-80 352.01 -80 351.02 -80 350 C-71.42 349.67 -62.84 349.34 -54 349 C-61.38471408 345.55048277 -61.38471408 345.55048277 -68.77832031 342.12011719 C-69.70225586 341.68344727 -70.62619141 341.24677734 -71.578125 340.796875 C-72.99206543 340.13703613 -72.99206543 340.13703613 -74.43457031 339.46386719 C-78.88317195 336.92543785 -81.41746623 333.63352948 -84.0234375 329.296875 C-84.57 328.39839844 -85.1165625 327.49992187 -85.6796875 326.57421875 C-86.23914063 325.64222656 -86.79859375 324.71023438 -87.375 323.75 C-90.83906968 317.99543564 -94.33769468 312.42726449 -98.43701172 307.10449219 C-101.63250207 302.80191068 -104.47181077 298.2524005 -107.375 293.75 C-108.69616193 291.71194608 -110.01777257 289.67418296 -111.33984375 287.63671875 C-111.96874512 286.66653809 -112.59764648 285.69635742 -113.24560547 284.69677734 C-116.4521496 279.76782014 -119.71651827 274.87801598 -123 270 C-119.20724078 262.01323248 -114.54626336 254.62951638 -109.86914062 247.13671875 C-109.25876953 246.14800781 -108.64839844 245.15929687 -108.01953125 244.140625 C-107.46370361 243.24891602 -106.90787598 242.35720703 -106.33520508 241.43847656 C-104.50432666 238.09475492 -103.68924828 236.27699144 -104.60498047 232.51391602 C-104.93900879 231.60311279 -105.27303711 230.69230957 -105.6171875 229.75390625 C-105.97683594 228.75166016 -106.33648437 227.74941406 -106.70703125 226.71679688 C-107.28517578 225.15541992 -107.28517578 225.15541992 -107.875 223.5625 C-108.62530594 221.50235962 -109.37280367 219.44119384 -110.1171875 217.37890625 C-110.45347168 216.4669751 -110.78975586 215.55504395 -111.13623047 214.61547852 C-111.97122579 212.08712779 -112.53715897 209.61951474 -113 207 C-113.66 207 -114.32 207 -115 207 C-115.12117187 208.15757812 -115.24234375 209.31515625 -115.3671875 210.5078125 C-115.53611316 212.04691292 -115.70540332 213.58597337 -115.875 215.125 C-115.95363281 215.88554687 -116.03226563 216.64609375 -116.11328125 217.4296875 C-116.60973665 221.85959721 -117.40400079 225.80211971 -119 230 C-120.66686292 229.39637501 -122.33347848 228.79206691 -124 228.1875 C-124.928125 227.85105469 -125.85625 227.51460937 -126.8125 227.16796875 C-128.50702351 226.54705879 -130.20036462 225.9224152 -131.88330078 225.27075195 C-156.12893435 215.92478551 -182.05616987 216.8093032 -206 227 C-223.68625381 235.31829551 -239.27379983 247.06689472 -254.21484375 259.51904297 C-256.72574586 261.60207527 -259.27168465 263.64113309 -261.8125 265.6875 C-265.42615189 268.63972454 -268.88867755 271.70497834 -272.3125 274.875 C-278.05869882 280.15462712 -284.10914202 284.95102372 -290.30078125 289.69042969 C-291.89024423 290.91541236 -293.46149608 292.16392342 -295.03125 293.4140625 C-302.56810436 299.30982761 -310.43234499 303.8148782 -319 308 C-319.72703125 308.3609375 -320.4540625 308.721875 -321.203125 309.09375 C-327.36844464 311.77432376 -338.13320817 314.5085414 -344.453125 312.04296875 C-345.21882813 311.52669922 -345.21882813 311.52669922 -346 311 C-343.61410936 308.3708113 -341.0466247 306.73979106 -338 304.9375 C-323.95450999 296.10572557 -314.60244233 283.78782406 -305.5625 270.125 C-304.88364746 269.10341797 -304.20479492 268.08183594 -303.50537109 267.02929688 C-295.95958227 255.57337039 -288.9087689 243.82262269 -281.84472656 232.06640625 C-265.37258272 204.68550014 -245.93398357 174.35786894 -213 166 C-212.26652344 165.81050781 -211.53304687 165.62101563 -210.77734375 165.42578125 C-180.0611488 160.71682872 -150.78071244 175.18252774 -126 192 C-129.44603781 180.57366409 -146.86476748 173.13569955 -156.6484375 167.76953125 C-164.18486523 163.77925951 -171.90234497 160.64749226 -180 158 C-180.65210449 157.77844238 -181.30420898 157.55688477 -181.97607422 157.32861328 C-195.05283944 153.00283924 -209.33036956 152.52716475 -222.8828125 154.8046875 C-226.20068063 155.19763639 -226.66070735 155.2469031 -229.49609375 153.18359375 C-230.13675781 152.27738281 -230.77742188 151.37117187 -231.4375 150.4375 C-232.17742187 149.42171875 -232.91734375 148.4059375 -233.6796875 147.359375 C-234.05706055 146.81087891 -234.43443359 146.26238281 -234.82324219 145.69726562 C-236.01357188 143.98042496 -237.25162055 142.30974533 -238.5078125 140.640625 C-254.48424133 119.21136491 -271.19878854 88.57213651 -270 61 C-269.34 61 -268.68 61 -268 61 C-267.29875 61.721875 -266.5975 62.44375 -265.875 63.1875 C-259.78985645 69.44953726 -252.2054097 72.44612692 -244 75 C-242.75605469 75.39058594 -241.51210937 75.78117187 -240.23046875 76.18359375 C-223.12066631 81.23785959 -205.24610484 83.1618186 -187.61865234 85.60888672 C-107.35127131 96.75699372 -107.35127131 96.75699372 -78 122 C-77.16082031 122.70253906 -76.32164062 123.40507812 -75.45703125 124.12890625 C-72.04621824 127.06120389 -68.88695781 129.99405964 -66.0625 133.5 C-65.381875 134.325 -64.70125 135.15 -64 136 C-63.34 136 -62.68 136 -62 136 C-62.96739856 130.08504879 -67.44251941 125.61441323 -71 121 C-71.78890625 119.95585937 -71.78890625 119.95585937 -72.59375 118.890625 C-81.80910386 107.51248401 -95.44555009 98.43403382 -109.06445312 93.20776367 C-111.70111814 91.56250865 -112.11414341 90.02296151 -113.1484375 87.1171875 C-113.5108252 86.12299805 -113.87321289 85.12880859 -114.24658203 84.10449219 C-114.61895996 83.03875977 -114.99133789 81.97302734 -115.375 80.875 C-116.17179509 78.66924196 -116.96867014 76.46351281 -117.765625 74.2578125 C-118.14912109 73.18047852 -118.53261719 72.10314453 -118.92773438 70.99316406 C-120.27731503 67.22589201 -121.69728154 63.48811586 -123.125 59.75 C-125.42795423 53.60878872 -127.63838112 47.43796226 -129.8125 41.25 C-130.11494629 40.39116211 -130.41739258 39.53232422 -130.72900391 38.64746094 C-131.01050293 37.84083008 -131.29200195 37.03419922 -131.58203125 36.203125 C-131.83186768 35.48801758 -132.0817041 34.77291016 -132.33911133 34.03613281 C-132.98713617 32.0396322 -133.51648235 30.04196535 -134 28 C-121.05339487 31.98821908 -108.84615563 36.40046219 -97 43 C-96.32018066 43.37495605 -95.64036133 43.74991211 -94.93994141 44.13623047 C-60.00994827 63.56335892 -23.8435411 91.8140667 -7.140625 129.1015625 C-6.07874532 131.33504708 -6.07874532 131.33504708 -3 132 C-3.93132007 129.43510233 -4.86978507 126.87320794 -5.8125 124.3125 C-6.20405273 123.2306543 -6.20405273 123.2306543 -6.60351562 122.12695312 C-8.08035322 118.13402184 -9.68005404 114.59217439 -12 111 C-12.66773438 109.86949219 -13.33546875 108.73898438 -14.0234375 107.57421875 C-23.16823284 92.34273264 -34.43595644 78.56404356 -47 66 C-46.213861 45.16731657 -29.28055009 23.89731499 -15 10 C-3.42707982 0 -3.42707982 0 0 0 Z " fill="#22B373" transform="translate(351,30)"/>
<path d="M0 0 C0.66 0 1.32 0 2 0 C3.48768614 4.03858153 4.96362846 8.08135851 6.4375 12.125 C6.85837891 13.26710937 7.27925781 14.40921875 7.71289062 15.5859375 C8.11572266 16.69453125 8.51855469 17.803125 8.93359375 18.9453125 C9.30540771 19.96125488 9.67722168 20.97719727 10.06030273 22.02392578 C12.54757005 29.9012416 12.54757005 29.9012416 10.2265625 34.55859375 C9.37578834 35.86242107 8.5075372 37.15495938 7.625 38.4375 C6.70165664 39.84148333 5.779819 41.24645791 4.859375 42.65234375 C4.38564453 43.36632324 3.91191406 44.08030273 3.42382812 44.81591797 C1.14101416 48.31764185 -0.99196609 51.90576413 -3.125 55.5 C-3.87756271 56.76044142 -4.63016284 58.0208605 -5.3828125 59.28125 C-5.91648438 60.1784375 -6.45015625 61.075625 -7 62 C-6.61070312 62.6084375 -6.22140625 63.216875 -5.8203125 63.84375 C-2.63065076 68.84137668 0.53453346 73.85189658 3.66308594 78.88793945 C10.05239483 89.16346591 16.60464034 99.23425302 23.91796875 108.8828125 C25.54246411 111.31498379 26.76179664 113.49438814 27.98828125 116.1171875 C34.13537324 128.81181062 41.82981368 133.05989209 54.77978516 138.09277344 C57.3700307 139.15120234 59.70688438 140.39433833 62 142 C62 142.33 62 142.66 62 143 C53.09 143 44.18 143 35 143 C35 143.99 35 144.98 35 146 C35.63808594 146.23589844 36.27617187 146.47179687 36.93359375 146.71484375 C41.92045178 148.80487724 46.68558932 151.34254343 51.49414062 153.81054688 C52.27080078 154.20435547 53.04746094 154.59816406 53.84765625 155.00390625 C54.54898682 155.36299072 55.25031738 155.7220752 55.97290039 156.09204102 C57.96976302 156.98645654 59.86524902 157.5397514 62 158 C62 158.66 62 159.32 62 160 C53.09 160 44.18 160 35 160 C34.67643601 172.09176346 34.67643601 172.09176346 38.94140625 176.56640625 C40.13962117 177.57566488 41.34705373 178.57406066 42.5625 179.5625 C46.29535187 183.05803915 48.8537516 185.93217473 49.22460938 191.17578125 C49.00788177 194.81761516 48.68078002 198.4329566 48.3125 202.0625 C47.409269 210.89816451 47.409269 210.89816451 51.13720703 218.55371094 C56.76428854 222.94524486 63.05887757 225.94431583 69.66162109 228.59155273 C73 230 73 230 75.03469849 231.24714661 C82.94604875 235.91027072 90.62109776 235.73334448 99.5078125 235.70703125 C101.0853769 235.72016952 102.66292455 235.73548022 104.240448 235.75285339 C108.3602396 235.79246818 112.4795888 235.80287848 116.59954834 235.80688477 C120.81650005 235.81626098 125.03319661 235.85370219 129.25 235.88867188 C137.50000505 235.95300767 145.74975584 235.98644423 154 236 C154 236.33 154 236.66 154 237 C142.12 237 130.24 237 118 237 C117.67 238.65 117.34 240.3 117 242 C116.34 242.66 115.68 243.32 115 244 C114.78216634 246.7816193 114.69024531 249.4664266 114.68356323 252.25088501 C114.67368728 253.11422341 114.66381132 253.97756181 114.6536361 254.86706197 C114.6227779 257.77676372 114.60613608 260.68637687 114.58935547 263.59619141 C114.57020687 265.67528572 114.55018725 267.75437216 114.52935791 269.83345032 C114.47515027 275.49219216 114.43319075 281.15096756 114.39335394 286.80982637 C114.34970212 292.71828144 114.29489164 298.62663245 114.24124146 304.53500366 C114.14129555 315.72986747 114.0514522 326.92478889 113.96519673 338.11976564 C113.86653045 350.86208064 113.7566652 363.60429128 113.64583755 376.3465054 C113.41805623 402.56423961 113.20440916 428.78207389 113 455 C110.2238715 453.61193575 110.01276169 451.64359613 108.88867188 448.89013672 C107.4705179 445.87383231 105.42549703 443.570914 103.25 441.0625 C102.77900879 440.51819336 102.30801758 439.97388672 101.82275391 439.41308594 C93.23106215 429.58058697 84.21488623 420.10679805 74.9140625 410.9453125 C72.37699279 408.36682124 70.03386262 405.64316701 67.6796875 402.8984375 C66.01795424 401.02029247 64.28874475 399.25694484 62.5 397.5 C59.46064541 394.50792426 56.64817766 391.37665981 53.8671875 388.14453125 C51.86846355 385.84892571 49.81054771 383.615204 47.75 381.375 C42.16655061 375.16907146 37.03706411 368.6520504 32 362 C31.46793945 361.2977832 30.93587891 360.59556641 30.38769531 359.87207031 C15.73230526 340.39186049 0.55186955 318.3868432 0.6875 293.25 C0.69487183 291.64656738 0.69487183 291.64656738 0.70239258 290.01074219 C0.81225314 282.6303661 1.37652947 275.9569765 4 269 C4.32871094 268.08347656 4.65742188 267.16695313 4.99609375 266.22265625 C10.26311391 252.64504373 17.42941485 240.13442312 26.18969727 228.5324707 C26.68526123 227.86562256 27.1808252 227.19877441 27.69140625 226.51171875 C28.13685791 225.92865967 28.58230957 225.34560059 29.04125977 224.74487305 C30.32103749 222.7475433 30.32103749 222.7475433 30 219 C28.07977297 217.22590192 28.07977297 217.22590192 26 216 C25.7834375 216.52078125 25.566875 217.0415625 25.34375 217.578125 C23.46609978 220.96226202 20.96788494 223.78884613 18.5 226.75 C12.6639675 233.89381948 7.6934962 241.37255354 3.00292969 249.30664062 C2.16631612 250.71918973 1.30838961 252.11908816 0.4453125 253.515625 C-5.52016768 263.51984642 -12.42847051 279.2058366 -10.41796875 290.99609375 C-9.7648642 295.77334027 -9.53279553 299.70562296 -12 304 C-19.48735512 310.94861962 -29.12288592 315.45632493 -38.15875244 320.05474854 C-40.91281162 321.46861516 -43.63144972 322.94725017 -46.35546875 324.41796875 C-59.77026815 331.51895132 -73.66320466 337.06050205 -88 342 C-89.01441162 342.35529785 -89.01441162 342.35529785 -90.04931641 342.71777344 C-100.40977719 346.31030791 -111.97135939 349.34091625 -123 349 C-122.59788859 343.9736074 -121.6066619 339.51138396 -120.125 334.6875 C-112.04689237 307.06273046 -114.94853672 280.21177659 -120.52392578 252.42382812 C-121.19654498 248.99933406 -121.78657201 245.56504055 -122.375 242.125 C-124.06435826 232.31121887 -126.00994952 222.54442139 -127.93115234 212.77392578 C-128.1833252 211.48470215 -128.43549805 210.19547852 -128.6953125 208.8671875 C-128.92234863 207.71331543 -129.14938477 206.55944336 -129.38330078 205.37060547 C-132.27883442 189.54489786 -132.63964783 172.50321347 -128 157 C-127.68289062 155.79601562 -127.36578125 154.59203125 -127.0390625 153.3515625 C-122.92037965 139.1844619 -114.33817353 128.21396385 -105 117 C-104.34257812 116.154375 -103.68515625 115.30875 -103.0078125 114.4375 C-101.19980964 112.24257046 -99.41336156 110.45759967 -97.25 108.625 C-94.15344564 105.98979643 -94.15344564 105.98979643 -91.125 103.27734375 C-82.76166884 95.62838046 -73.71029842 89.72889224 -63 86 C-61.77796875 85.52433594 -60.5559375 85.04867187 -59.296875 84.55859375 C-54.77296064 82.85868904 -50.17396268 81.59038034 -45.5 80.375 C-44.69691406 80.1584375 -43.89382812 79.941875 -43.06640625 79.71875 C-35.86464586 77.82785019 -28.97767106 76.85252647 -21.5 76.9375 C-19.93765625 76.95103516 -19.93765625 76.95103516 -18.34375 76.96484375 C-17.5703125 76.97644531 -16.796875 76.98804688 -16 77 C-16.99 75.02 -17.98 73.04 -19 71 C-27.92703551 70.76229787 -36.26505446 71.11978417 -45 73 C-46.22332031 73.25652344 -47.44664062 73.51304687 -48.70703125 73.77734375 C-72.03320354 78.96866277 -102.8173466 92.42313625 -116.4140625 113.15625 C-121.87925855 119.50987693 -138.02532548 119.23599828 -146 120 C-151.19127844 120.30181087 -156.36306783 120.38201162 -161.5625 120.375 C-162.25321594 120.37445618 -162.94393188 120.37391235 -163.65557861 120.37335205 C-185.49381941 120.29491686 -206.52761394 116.1064733 -226 106 C-226 105.67 -226 105.34 -226 105 C-224.9584375 104.87625 -223.916875 104.7525 -222.84375 104.625 C-211.62257568 103.08872066 -202.76525187 99.65227407 -193 94 C-191.57300781 93.19755859 -191.57300781 93.19755859 -190.1171875 92.37890625 C-175.61229404 83.69761927 -162.96283184 71.53117555 -150.24267578 60.47216797 C-119.61639212 33.85053492 -85.34451203 7.97014634 -42.61328125 10.70556641 C-30.33280337 12.08918527 -18.20851628 15.69218426 -7.09741211 21.02270508 C-5.23458212 22.07039233 -5.23458212 22.07039233 -4 22 C-2.68 14.74 -1.36 7.48 0 0 Z " fill="#016738" transform="translate(236,237)"/>
<path d="M0 0 C0.33 0 0.66 0 1 0 C-0.11102363 28.83106316 -13.2849833 57.67813794 -30.73828125 80.32714844 C-32.03263193 82.04326509 -33.25031043 83.79970706 -34.46875 85.5703125 C-40.2093854 93.60765776 -40.2093854 93.60765776 -44.37109375 94.51953125 C-46.875 94.25 -46.875 94.25 -49.6484375 93.6640625 C-77.42214323 88.16111381 -106.35307742 101.4779174 -128.921875 116.57080078 C-132.32080685 118.90836505 -135.65828739 121.3096594 -138.9375 123.8125 C-139.51105225 124.2441748 -140.08460449 124.67584961 -140.67553711 125.12060547 C-144.31994894 128.01902658 -146.11152909 130.7872572 -148 135 C-149.62339805 136.70884005 -151.29319053 138.37446717 -153 140 C-158.44606532 145.34082734 -159.9022192 151.17168585 -161.8125 158.4375 C-162.12380859 159.54416016 -162.43511719 160.65082031 -162.75585938 161.79101562 C-165.75616469 171.92355597 -165.75616469 171.92355597 -163.09375 181.7265625 C-162.24410095 183.03585503 -161.37873759 184.33505012 -160.5 185.625 C-160.05237305 186.31505127 -159.60474609 187.00510254 -159.14355469 187.71606445 C-157.35756562 190.46877865 -155.53837389 193.19834417 -153.70898438 195.92236328 C-152.54155432 197.66838805 -151.39528447 199.42690786 -150.25 201.1875 C-149.23679687 202.69376953 -149.23679687 202.69376953 -148.203125 204.23046875 C-147 207 -147 207 -147.71582031 209.33374023 C-149.08672932 212.1800705 -150.63299058 214.77338673 -152.34375 217.4296875 C-153.00810059 218.46488525 -153.67245117 219.50008301 -154.35693359 220.56665039 C-155.06414551 221.65840576 -155.77135742 222.75016113 -156.5 223.875 C-157.23153309 225.01082501 -157.9628142 226.14681234 -158.69384766 227.28295898 C-162.91237338 233.82827355 -167.18736662 240.33317475 -171.53955078 246.7902832 C-175.01581867 251.96771919 -178.32415691 257.24486378 -181.60302734 262.54907227 C-181.9892627 263.17354248 -182.37549805 263.7980127 -182.7734375 264.44140625 C-183.10778809 264.98482666 -183.44213867 265.52824707 -183.78662109 266.08813477 C-184.18703613 266.71905029 -184.58745117 267.34996582 -185 268 C-185.85730713 269.48222046 -185.85730713 269.48222046 -186.73193359 270.99438477 C-189.37491472 274.49683263 -191.58201706 275.75315368 -195.515625 277.6484375 C-196.13145447 277.95069244 -196.74728394 278.25294739 -197.3817749 278.56436157 C-199.33080053 279.51666521 -201.28978051 280.44599288 -203.25 281.375 C-204.58145439 282.02064199 -205.9121923 282.66776373 -207.2421875 283.31640625 C-210.48576861 284.89775315 -213.74187703 286.44750015 -217 288 C-207.76 288.33 -198.52 288.66 -189 289 C-190 292 -190 292 -192.36083984 293.44213867 C-193.38387207 293.9291626 -194.4069043 294.41618652 -195.4609375 294.91796875 C-196.57210937 295.44970703 -197.68328125 295.98144531 -198.828125 296.52929688 C-199.99859375 297.07650391 -201.1690625 297.62371094 -202.375 298.1875 C-203.53773438 298.74630859 -204.70046875 299.30511719 -205.8984375 299.88085938 C-214.58937157 304 -214.58937157 304 -218 304 C-218 304.66 -218 305.32 -218 306 C-208.43 306 -198.86 306 -189 306 C-189 319 -189 319 -190.828125 322.28125 C-191.62734375 323.0134375 -192.4265625 323.745625 -193.25 324.5 C-194.03890625 325.2528125 -194.8278125 326.005625 -195.640625 326.78125 C-196.41921875 327.5134375 -197.1978125 328.245625 -198 329 C-200.54317426 331.69014821 -201.8962369 333.24034849 -202.40307617 336.95092773 C-202.36674072 338.01770752 -202.33040527 339.0844873 -202.29296875 340.18359375 C-202.28458984 341.35857422 -202.27621094 342.53355469 -202.26757812 343.74414062 C-202.21426649 346.20297724 -202.14139825 348.66146888 -202.04882812 351.11914062 C-202.03440951 359.89046357 -202.03440951 359.89046357 -204.67700195 362.92700195 C-207.03942121 364.5001113 -209.46217258 365.7314386 -212 367 C-213.70718065 368.1856855 -215.40080255 369.39107589 -217.08203125 370.61328125 C-233.43051512 381.5122705 -246.81017995 382.76182376 -265.86839294 382.16941833 C-271.53191412 381.99468867 -277.15410848 382.07054936 -282.81640625 382.2578125 C-285.22709023 382.32136387 -287.63783274 382.3806154 -290.04867554 382.43780518 C-291.5716098 382.47852118 -293.09432995 382.52857616 -294.61660767 382.58905029 C-305.86088665 383.00337861 -313.37138782 380.82833385 -323 375 C-324.17997559 374.32928467 -324.17997559 374.32928467 -325.38378906 373.64501953 C-327.26002995 372.56983456 -329.10165585 371.45494226 -330.9375 370.3125 C-332.13366614 369.57869558 -333.33027888 368.84561865 -334.52734375 368.11328125 C-335.37594971 367.59241943 -335.37594971 367.59241943 -336.24169922 367.06103516 C-339.1297686 365.3182485 -342.06424706 363.66096877 -345 362 C-344.34 361.67 -343.68 361.34 -343 361 C-342.9055674 356.70670553 -342.91300028 352.41913306 -342.9375 348.125 C-342.89592773 346.31902344 -342.89592773 346.31902344 -342.85351562 344.4765625 C-342.94667968 337.61968794 -343.63310009 333.60349774 -348.31640625 328.4296875 C-349.87202195 326.94724508 -351.43310668 325.47051728 -353 324 C-357 319 -357 319 -357 306 C-348.09 306 -339.18 306 -330 306 C-330 305.34 -330 304.68 -330 304 C-331.32475342 303.8299646 -331.32475342 303.8299646 -332.67626953 303.65649414 C-335.9614435 303.00761557 -338.24579232 302.07170413 -341.1796875 300.49609375 C-342.1078125 300.00302734 -343.0359375 299.50996094 -343.9921875 299.00195312 C-344.94351562 298.48568359 -345.89484375 297.96941406 -346.875 297.4375 C-348.33679688 296.65729492 -348.33679688 296.65729492 -349.828125 295.86132812 C-352.22292498 294.58175363 -354.61324282 293.2944962 -357 292 C-357 291.01 -357 290.02 -357 289 C-348.42 288.67 -339.84 288.34 -331 288 C-338.38471408 284.55048277 -338.38471408 284.55048277 -345.77832031 281.12011719 C-346.70225586 280.68344727 -347.62619141 280.24677734 -348.578125 279.796875 C-349.99206543 279.13703613 -349.99206543 279.13703613 -351.43457031 278.46386719 C-355.92248236 275.90300683 -358.4708211 272.54798362 -361.12890625 268.19140625 C-361.68900391 267.27939453 -362.24910156 266.36738281 -362.82617188 265.42773438 C-363.39916016 264.48220703 -363.97214844 263.53667969 -364.5625 262.5625 C-365.4277832 261.15000977 -365.4277832 261.15000977 -366.31054688 259.70898438 C-368.89486549 255.48524795 -371.45519477 251.24765239 -374 247 C-372.7625 247.433125 -371.525 247.86625 -370.25 248.3125 C-368.50264865 248.88317462 -366.75240276 249.4450308 -365 250 C-364.10667969 250.28617188 -363.21335937 250.57234375 -362.29296875 250.8671875 C-353.11910299 253.50263457 -341.17409486 255.43712431 -332.1875 251.25 C-327.19209809 247.72383395 -325.57641182 244.36181974 -323.66015625 238.609375 C-323.45296967 237.99190399 -323.24578308 237.37443298 -323.03231812 236.73825073 C-322.36702245 234.74492606 -321.7139045 232.74790362 -321.0625 230.75 C-320.83934113 230.07281921 -320.61618225 229.39563843 -320.38626099 228.69793701 C-309.69591534 197.71917458 -309.69591534 197.71917458 -313.8828125 166.19921875 C-317.75134067 158.58389931 -324.09720315 155.63426562 -332 153 C-344.86425875 151.51096815 -355.43168618 157.32922035 -366 164 C-364.37170704 157.78952364 -361.01462933 152.64529735 -357.75 147.1875 C-352.71037931 138.65886092 -347.75937621 130.0912094 -342.9375 121.4375 C-342.36346436 120.40818359 -341.78942871 119.37886719 -341.19799805 118.31835938 C-340.04292581 116.24685948 -338.8880582 114.17524547 -337.73339844 112.10351562 C-330.60364126 99.33823771 -323.44321491 86.58579975 -316 74 C-310.95260731 74.56412036 -307.18682502 76.94551602 -302.875 79.4375 C-301.27408346 80.33838844 -299.67249746 81.23808806 -298.0703125 82.13671875 C-295.51070275 83.57979706 -292.95345344 85.0265618 -290.40136719 86.48291016 C-287.86132382 87.92487912 -285.30758966 89.33944296 -282.75 90.75 C-281.9647998 91.20431396 -281.17959961 91.65862793 -280.37060547 92.12670898 C-275.84658566 94.62460295 -275.84658566 94.62460295 -270.7890625 94.4609375 C-268.00806791 93.00422605 -265.29838965 91.52193058 -262.625 89.875 C-257.10871399 86.57624719 -251.47176779 83.65778282 -245.69580078 80.84130859 C-244.73843018 80.37265381 -244.73843018 80.37265381 -243.76171875 79.89453125 C-243.13571777 79.5898291 -242.5097168 79.28512695 -241.86474609 78.97119141 C-239.94991656 77.97391569 -238.15815941 76.84936864 -236.33203125 75.69921875 C-233 74 -233 74 -230.484375 73.80859375 C-225.87974776 76.01678763 -222.80920663 80.24754115 -219.5234375 84.07226562 C-216.28736152 87.60933323 -216.28736152 87.60933323 -211.99804688 89.50341797 C-209.59369866 89.56544796 -207.38106432 89.34577493 -205 89 C-204.07082764 88.86730713 -203.14165527 88.73461426 -202.18432617 88.59790039 C-200.03205444 88.26898912 -197.88200119 87.92536241 -195.73388672 87.5703125 C-191.51981672 86.92665698 -187.30510921 86.44610341 -183.06640625 86 C-182.29235443 85.91766113 -181.51830261 85.83532227 -180.72079468 85.75048828 C-177.52083997 85.41189231 -174.32048832 85.07756371 -171.11938477 84.75 C-168.74689618 84.50590995 -166.37540545 84.2534981 -164.00390625 84 C-163.28819962 83.92910156 -162.57249298 83.85820312 -161.83509827 83.78515625 C-154.74605815 83.01727733 -149.31671382 80.80474647 -143.25 77.1875 C-141.99829848 76.46198214 -140.74569133 75.73802449 -139.4921875 75.015625 C-138.58678223 74.49258789 -138.58678223 74.49258789 -137.66308594 73.95898438 C-119.1822367 63.30238194 -98.00372619 58.72094582 -77.47070312 53.69775391 C-46.83231389 46.16635069 -21.14441754 34.1840953 -3.09375 7.0078125 C-1.99887853 4.99794129 -1.49974195 3.22000751 -1 1 C-0.67 0.67 -0.34 0.34 0 0 Z " fill="#22B373" transform="translate(628,91)"/>
<path d="M0 0 C0.33 44.22 0.66 88.44 1 134 C2.98 134 4.96 134 7 134 C7.495 67.67 7.495 67.67 8 0 C25.73199366 8.86599683 37.82769317 24.44257903 46.875 41.625 C47.32721924 42.48311279 47.77943848 43.34122559 48.24536133 44.2253418 C54.76648544 56.99400193 54.76648544 56.99400193 56 63 C54.8063901 66.29197683 52.97377843 68.19018301 50.4375 70.5625 C45.5156937 75.37808027 41.23302488 80.57515258 37 86 C36.5678418 86.55042969 36.13568359 87.10085937 35.69042969 87.66796875 C25.15281372 101.19136919 16.47429481 115.69236387 11 132 C12.65 131.67 14.3 131.34 16 131 C16.0928125 130.31035156 16.185625 129.62070313 16.28125 128.91015625 C20.14762743 113.25553024 34.12361294 99.32925536 45 88 C45.91007813 87.04867187 46.82015625 86.09734375 47.7578125 85.1171875 C62.96576256 69.56261749 81.01671207 56.57903619 100 46 C100.73863281 45.58621094 101.47726562 45.17242187 102.23828125 44.74609375 C115.04587097 37.63076613 127.84816523 31.91896963 142 28 C141.00381316 33.54456625 139.51021847 38.37291427 137.11132812 43.46362305 C135.9920229 46.01820609 135.09114774 48.56365384 134.2265625 51.21484375 C133.87770996 52.27018311 133.52885742 53.32552246 133.16943359 54.4128418 C132.34248655 56.94944574 131.52591144 59.48812513 130.71728516 62.03051758 C129.54158724 65.70463293 128.29856663 69.3516436 127.02294922 72.9921875 C126.50765686 74.49737504 126.01374548 76.01005244 125.54150391 77.52929688 C123.02900563 85.55960796 120.82774816 91.70111919 113.09454346 95.78143311 C110.40276779 97.01631554 107.66633876 98.09451883 104.90309143 99.15753174 C99.69442899 101.46332363 95.3563104 105.40269536 91 109 C90.21238281 109.62390625 89.42476562 110.2478125 88.61328125 110.890625 C81.12508764 117.11118374 75.3767679 124.93484815 70 133 C70 133.99 70 134.98 70 136 C72.86147022 134.71131961 74.80806193 133.40200961 76.92578125 131.09375 C77.46686523 130.51963379 78.00794922 129.94551758 78.56542969 129.35400391 C79.14196289 128.74218262 79.71849609 128.13036133 80.3125 127.5 C112.63754168 94.40289039 163.70031462 89.86446654 207.14831543 84.02731323 C215.61280506 82.88881806 224.07663393 81.74434152 232.5234375 80.48046875 C233.26888824 80.3752742 234.01433899 80.27007965 234.78237915 80.16169739 C239.84919552 79.38181705 244.23785989 77.90215528 249 76 C251.45676206 75.24486892 253.9150842 74.49479327 256.375 73.75 C262.38230043 71.85426279 267.18727207 69.24986499 272.14453125 65.35546875 C274 64 274 64 276 64 C269.74231142 81.77312582 251.71437539 95.38378836 235.64453125 103.74609375 C221.16814034 110.68161675 205.73412539 114.19889334 190.22119141 117.99194336 C180.06370512 120.48331762 170.04806641 123.15387561 160.16796875 126.6015625 C158.97379333 127.01810844 158.97379333 127.01810844 157.75549316 127.44306946 C148.18461855 130.88405149 138.91774198 135.13927486 130.6875 141.140625 C125.80476929 144.43386993 121.47595684 145.1729023 115.6875 145.6875 C114.71780273 145.79433105 113.74810547 145.90116211 112.74902344 146.01123047 C109.5013635 146.36405887 106.25120439 146.6815998 103 147 C99.17752465 147.40171085 95.35592585 147.81106443 91.53442383 148.22192383 C89.04146267 148.48744727 86.54780919 148.74656094 84.0534668 148.9987793 C82.34864136 149.17340698 82.34864136 149.17340698 80.609375 149.3515625 C79.59842773 149.45291504 78.58748047 149.55426758 77.54589844 149.65869141 C74.88377019 149.93464939 74.88377019 149.93464939 72 151 C68.86517976 151.57223824 66.12705257 151.66774599 63 151 C59.9720288 148.8835358 57.69864441 146.24015331 55.3125 143.4375 C51.09946265 138.02423489 51.09946265 138.02423489 45.08203125 135.7421875 C40.97480121 137.41839545 37.2012895 139.45046764 33.375 141.6875 C31.77327543 142.60225944 30.17040742 143.51501965 28.56640625 144.42578125 C27.78797363 144.86873535 27.00954102 145.31168945 26.20751953 145.76806641 C22.37021466 147.90952188 18.43760577 149.83184549 14.48046875 151.7421875 C12.24766968 152.87441002 10.21584264 154.13029397 8.125 155.5 C5 157 5 157 2.5 156.44921875 C-2.53399735 154.36482922 -7.3094804 151.85542683 -12.125 149.3125 C-13.15093262 148.77665283 -14.17686523 148.24080566 -15.23388672 147.6887207 C-21.55487157 144.36581757 -27.71089773 140.91341166 -33.6953125 137.01171875 C-36.73490422 135.6773895 -37.90537913 135.79497339 -41 137 C-43.1807432 138.73893029 -45.13720159 140.44172973 -47.125 142.375 C-47.64964844 142.87 -48.17429687 143.365 -48.71484375 143.875 C-51.6624978 146.64144871 -51.6624978 146.64144871 -54.32055664 149.6784668 C-56.81350469 151.64013677 -58.50382958 151.14543664 -61.61328125 150.80859375 C-62.77553223 150.68983887 -63.9377832 150.57108398 -65.13525391 150.44873047 C-66.41062012 150.30064941 -67.68598633 150.15256836 -69 150 C-70.36234874 149.85322341 -71.72481993 149.70757951 -73.08740234 149.56298828 C-76.71350264 149.17196851 -80.3359348 148.75409365 -83.95776367 148.32543945 C-86.19460787 148.06166181 -88.43220257 147.80506298 -90.66992188 147.54882812 C-98.18160961 146.67417315 -105.61877907 145.68755548 -113 144 C-113 143.67 -113 143.34 -113 143 C-112.10804932 142.94465088 -111.21609863 142.88930176 -110.29711914 142.83227539 C-106.94788505 142.62339656 -103.59878587 142.41255599 -100.24975586 142.20043945 C-98.80774699 142.10949906 -97.36569037 142.01931228 -95.92358398 141.92993164 C-86.35361307 141.3570842 -86.35361307 141.3570842 -76.8125 140.4375 C-72.47717832 139.94000407 -68.35597315 139.93085757 -64 140 C-64 139.34 -64 138.68 -64 138 C-63.34 138 -62.68 138 -62 138 C-61.42098682 133.12738142 -63.10089936 130.95995623 -66.0625 127.1875 C-66.68475464 126.39484741 -66.68475464 126.39484741 -67.31958008 125.58618164 C-68.53520416 124.04854725 -69.76727132 122.52395585 -71 121 C-71.54914063 120.28328125 -72.09828125 119.5665625 -72.6640625 118.828125 C-81.82173118 107.46322336 -95.49605304 98.41465325 -109.06445312 93.20776367 C-111.70111814 91.56250865 -112.11414341 90.02296151 -113.1484375 87.1171875 C-113.69201904 85.62590332 -113.69201904 85.62590332 -114.24658203 84.10449219 C-114.61895996 83.03875977 -114.99133789 81.97302734 -115.375 80.875 C-116.17179509 78.66924196 -116.96867014 76.46351281 -117.765625 74.2578125 C-118.14912109 73.18047852 -118.53261719 72.10314453 -118.92773438 70.99316406 C-120.27731503 67.22589201 -121.69728154 63.48811586 -123.125 59.75 C-125.42795423 53.60878872 -127.63838112 47.43796226 -129.8125 41.25 C-130.11494629 40.39116211 -130.41739258 39.53232422 -130.72900391 38.64746094 C-131.01050293 37.84083008 -131.29200195 37.03419922 -131.58203125 36.203125 C-131.83186768 35.48801758 -132.0817041 34.77291016 -132.33911133 34.03613281 C-132.98713617 32.0396322 -133.51648235 30.04196535 -134 28 C-121.05339487 31.98821908 -108.84615563 36.40046219 -97 43 C-95.980271 43.56243408 -95.980271 43.56243408 -94.93994141 44.13623047 C-60.00994827 63.56335892 -23.8435411 91.8140667 -7.140625 129.1015625 C-6.07874532 131.33504708 -6.07874532 131.33504708 -3 132 C-3.93132007 129.43510233 -4.86978507 126.87320794 -5.8125 124.3125 C-6.07353516 123.59126953 -6.33457031 122.87003906 -6.60351562 122.12695312 C-8.08035322 118.13402184 -9.68005404 114.59217439 -12 111 C-12.66773438 109.86949219 -13.33546875 108.73898438 -14.0234375 107.57421875 C-23.16823284 92.34273264 -34.43595644 78.56404356 -47 66 C-46.213861 45.16731657 -29.28055009 23.89731499 -15 10 C-3.42707982 0 -3.42707982 0 0 0 Z " fill="#03693A" transform="translate(351,30)"/>
<path d="M0 0 C1.17979848 1.9067687 2.32005161 3.83840792 3.42578125 5.7890625 C4.05806641 6.89636719 4.69035156 8.00367188 5.34179688 9.14453125 C5.99212891 10.29308594 6.64246094 11.44164062 7.3125 12.625 C11.59901406 20.17722355 15.94564067 27.62435712 20.73901367 34.86865234 C22 37 22 37 22 39 C21.3915625 39.14695312 20.783125 39.29390625 20.15625 39.4453125 C-2.61531592 45.27215437 -22.06018812 55.10234728 -35.375 75.125 C-47.13131587 95.63757603 -49.38726072 120.20855175 -51.0625 143.3125 C-51.96210815 155.35378976 -52.9405936 167.35741526 -54.484375 179.3359375 C-54.60156387 180.25494339 -54.71875275 181.17394928 -54.8394928 182.12080383 C-59.03996478 213.42540596 -71.93704489 240.83441935 -97.14111328 260.43603516 C-105.97081543 267.139079 -105.97081543 267.139079 -109.3125 266.6875 C-110.1478125 266.3471875 -110.1478125 266.3471875 -111 266 C-109.85419583 260.5574302 -108.50882902 255.22909104 -107 249.875 C-99.87789667 223.65987797 -103.26999475 197.60961773 -108.52392578 171.42382812 C-109.19654498 167.99933406 -109.78657201 164.56504055 -110.375 161.125 C-112.06435826 151.31121887 -114.00994952 141.54442139 -115.93115234 131.77392578 C-116.1833252 130.48470215 -116.43549805 129.19547852 -116.6953125 127.8671875 C-116.92234863 126.71331543 -117.14938477 125.55944336 -117.38330078 124.37060547 C-120.27883442 108.54489786 -120.63964783 91.50321347 -116 76 C-115.68289062 74.79601562 -115.36578125 73.59203125 -115.0390625 72.3515625 C-110.92037965 58.1844619 -102.33817353 47.21396385 -93 36 C-92.01386719 34.7315625 -92.01386719 34.7315625 -91.0078125 33.4375 C-89.19980964 31.24257046 -87.41336156 29.45759967 -85.25 27.625 C-82.15344564 24.98979643 -82.15344564 24.98979643 -79.125 22.27734375 C-70.76166884 14.62838046 -61.71029842 8.72889224 -51 5 C-49.74982875 4.51867372 -48.49984706 4.03685496 -47.25 3.5546875 C-36.22886066 -0.5775975 -24.73782162 -3.21860575 -13.0625 -4.625 C-11.7935791 -4.80204468 -11.7935791 -4.80204468 -10.49902344 -4.98266602 C-9.70657227 -5.06315186 -8.91412109 -5.1436377 -8.09765625 -5.2265625 C-7.05363647 -5.34378662 -7.05363647 -5.34378662 -5.98852539 -5.46337891 C-2.8000992 -4.72039144 -1.80998762 -2.632381 0 0 Z " fill="#22B373" transform="translate(224,318)"/>
<path d="M0 0 C5.01700098 0.56944434 8.77054334 2.89960353 13.0625 5.375 C22.98704184 11.02155707 32.99064263 16.49485345 43 22 C43 78.76 43 135.52 43 194 C54.2952199 194.3665486 54.2952199 194.3665486 58 189.97265625 C58.44085938 189.4327002 58.88171875 188.89274414 59.3359375 188.33642578 C63.01906257 185.37846999 68.50643203 186.33167322 73 186.4375 C81.40951298 186.95342811 81.40951298 186.95342811 88.6875 183.47265625 C89.8321875 182.24869141 89.8321875 182.24869141 91 181 C91.33 181 91.66 181 92 181 C92.53192617 184.64749372 92.62752578 186.84380706 90.85009766 190.11865234 C88.30118617 193.40349016 86.41836809 195.66656487 82.27075195 196.64160156 C79.13592467 196.79602907 76.07303626 196.76240634 72.9375 196.625 C65.74164999 195.93168674 65.74164999 195.93168674 59.34033203 198.33203125 C58.44866202 199.42927079 57.55730503 200.52676477 56.66625977 201.62451172 C52.95277777 204.6899707 47.57008466 203.84934967 43 203.75 C41.93265625 203.77320313 40.8653125 203.79640625 39.765625 203.8203125 C31.9233424 203.761788 31.9233424 203.761788 29.33813477 201.62890625 C28.89783936 201.08621094 28.45754395 200.54351562 28.00390625 199.984375 C26.12975114 197.67782799 25.36235645 197.06772639 22.38232422 196.51074219 C19.22329519 196.40224721 16.09720088 196.41259998 12.9375 196.5 C10.80136393 196.55887493 8.66428936 196.59110035 6.52734375 196.59375 C5.58624756 196.62146484 4.64515137 196.64917969 3.67553711 196.67773438 C1 196 1 196 -4 190 C-4 197.26 -4 204.52 -4 212 C-2.35 212.66 -0.7 213.32 1 214 C3.40665159 215.222723 5.79275595 216.46442617 8.171875 217.73828125 C8.85372864 218.10092575 9.53558228 218.46357025 10.23809814 218.83720398 C11.67759995 219.60340535 13.11645095 220.37083053 14.5546875 221.1394043 C16.72778437 222.30062877 18.90275503 223.4582748 21.078125 224.61523438 C28.08776132 228.34781443 35.07556652 232.11082828 42 236 C40.66722588 239.99832236 38.0182014 241.53104536 34.75 243.9375 C33.59864793 244.80036722 32.44760204 245.66364316 31.296875 246.52734375 C30.72904297 246.94097168 30.16121094 247.35459961 29.57617188 247.78076172 C27.80380577 249.0968206 27.80380577 249.0968206 25.703125 251.31640625 C21.55709828 253.89868589 17.75942564 253.34946531 13 253 C11.69699951 252.9074292 11.69699951 252.9074292 10.36767578 252.81298828 C7.76115245 252.59825322 5.16321023 252.33842185 2.5625 252.0625 C1.23702148 251.93198242 1.23702148 251.93198242 -0.11523438 251.79882812 C-3.6009205 251.44098202 -6.6621721 251.1126093 -10 250 C-9.78794922 250.52956299 -9.57589844 251.05912598 -9.35742188 251.60473633 C-8.399639 254.00524543 -7.44974557 256.40880032 -6.5 258.8125 C-6.16613281 259.64587891 -5.83226562 260.47925781 -5.48828125 261.33789062 C-5.01455078 262.54155273 -5.01455078 262.54155273 -4.53125 263.76953125 C-4.23798828 264.50792236 -3.94472656 265.24631348 -3.64257812 266.00708008 C-3 268 -3 268 -3 271 C-2.319375 270.566875 -1.63875 270.13375 -0.9375 269.6875 C2 268 2 268 5.2265625 266.6484375 C7.7676186 265.57916641 10.15736403 264.39477554 12.55078125 263.02734375 C22.82941766 257.25037949 31.20373431 255.73726661 43 255 C43 261.93 43 268.86 43 276 C41.45570313 276.79664063 39.91140625 277.59328125 38.3203125 278.4140625 C36.25512129 279.48420704 34.19002202 280.55452902 32.125 281.625 C31.11179687 282.14707031 30.09859375 282.66914063 29.0546875 283.20703125 C24.1152431 285.77174277 19.34151602 288.39690529 14.66796875 291.421875 C10.5277894 293.93390321 8.06636914 294.60887634 3.1875 293.625 C1.93066406 293.39167969 0.67382812 293.15835937 -0.62109375 292.91796875 C-1.30671387 292.77278809 -1.99233398 292.62760742 -2.69873047 292.47802734 C-5.32405566 291.93268608 -7.95786987 291.45853925 -10.59765625 290.98828125 C-14.34717228 290.31022771 -18.0948284 289.62548823 -21.8359375 288.90234375 C-23.00455322 288.67792603 -23.00455322 288.67792603 -24.19677734 288.44897461 C-26 288 -26 288 -27 287 C-27.04837708 285.11650659 -27.03657508 283.2314158 -27 281.34765625 C-27.00128906 280.17783203 -27.00257813 279.00800781 -27.00390625 277.80273438 C-27.00133856 275.34416929 -26.9683749 272.88541392 -26.90234375 270.42773438 C-26.96958718 263.58011218 -27.63402954 259.60196142 -32.3125 254.43359375 C-33.8694218 252.94985371 -35.43180998 251.47182541 -37 250 C-41 245 -41 245 -41 232 C-32.09 232 -23.18 232 -14 232 C-14 231.34 -14 230.68 -14 230 C-14.88316895 229.88664307 -15.76633789 229.77328613 -16.67626953 229.65649414 C-19.9614435 229.00761557 -22.24579232 228.07170413 -25.1796875 226.49609375 C-26.1078125 226.00302734 -27.0359375 225.50996094 -27.9921875 225.00195312 C-29.41917969 224.22754883 -29.41917969 224.22754883 -30.875 223.4375 C-32.33679688 222.65729492 -32.33679688 222.65729492 -33.828125 221.86132812 C-36.22292498 220.58175363 -38.61324282 219.2944962 -41 218 C-41 217.01 -41 216.02 -41 215 C-32.42 214.67 -23.84 214.34 -15 214 C-22.38471408 210.55048277 -22.38471408 210.55048277 -29.77832031 207.12011719 C-30.70225586 206.68344727 -31.62619141 206.24677734 -32.578125 205.796875 C-33.52075195 205.35698242 -34.46337891 204.91708984 -35.43457031 204.46386719 C-39.92248236 201.90300683 -42.4708211 198.54798362 -45.12890625 194.19140625 C-45.68900391 193.27939453 -46.24910156 192.36738281 -46.82617188 191.42773438 C-47.6856543 190.00944336 -47.6856543 190.00944336 -48.5625 188.5625 C-49.13935547 187.62083984 -49.71621094 186.67917969 -50.31054688 185.70898438 C-52.89486549 181.48524795 -55.45519477 177.24765239 -58 173 C-56.7625 173.433125 -55.525 173.86625 -54.25 174.3125 C-52.50264865 174.88317462 -50.75240276 175.4450308 -49 176 C-48.10667969 176.28617188 -47.21335937 176.57234375 -46.29296875 176.8671875 C-37.11910299 179.50263457 -25.17409486 181.43712431 -16.1875 177.25 C-11.19209809 173.72383395 -9.57641182 170.36181974 -7.66015625 164.609375 C-7.45296967 163.99190399 -7.24578308 163.37443298 -7.03231812 162.73825073 C-6.36702245 160.74492606 -5.7139045 158.74790362 -5.0625 156.75 C-4.83934113 156.07281921 -4.61618225 155.39563843 -4.38626099 154.69793701 C6.30408466 123.71917458 6.30408466 123.71917458 2.1171875 92.19921875 C-1.75134067 84.58389931 -8.09720315 81.63426562 -16 79 C-28.86425875 77.51096815 -39.43168618 83.32922035 -50 90 C-48.37170704 83.78952364 -45.01462933 78.64529735 -41.75 73.1875 C-36.71037931 64.65886092 -31.75937621 56.0912094 -26.9375 47.4375 C-26.36346436 46.40818359 -25.78942871 45.37886719 -25.19799805 44.31835938 C-24.04292581 42.24685948 -22.8880582 40.17524547 -21.73339844 38.10351562 C-14.60364126 25.33823771 -7.44321491 12.58579975 0 0 Z " fill="#FBFDFC" transform="translate(312,165)"/>
<path d="M0 0 C19.61848412 1.15402848 38.17683493 11.45529059 51.4609375 25.625 C60.7809346 36.52413282 66.47038458 48.53761209 69.5625 62.4375 C69.77068359 63.32115234 69.97886719 64.20480469 70.19335938 65.11523438 C73.25841522 78.67258172 74.27450488 92.4766778 75.26123047 106.30612183 C76.2709146 120.30482588 77.431882 134.18633403 80 148 C80.185625 149.03519775 80.185625 149.03519775 80.375 150.09130859 C85.93888574 180.90277482 99.30369005 205.56777767 125 224 C127.79104216 225.64236457 128.70035072 226 132 226 C132.66 225.34 133.32 224.68 134 224 C134.66 225.98 135.32 227.96 136 230 C120.95803204 228.38506479 107.22090571 225.14673809 93 220 C92.17709473 219.70496582 91.35418945 219.40993164 90.50634766 219.10595703 C66.54766121 210.37659877 44.17653053 198.11768702 23 184 C22.57104492 181.74780273 22.57104492 181.74780273 22.48046875 178.93359375 C22.40711304 177.38224731 22.40711304 177.38224731 22.33227539 175.79956055 C22.28449951 174.69008057 22.23672363 173.58060059 22.1875 172.4375 C20.39659604 144.53699727 5.52451958 120.92803601 -12.88745117 100.47387695 C-14 99 -14 99 -14 97 C-14.99 96.67 -15.98 96.34 -17 96 C-17.10054688 94.85015625 -17.20109375 93.7003125 -17.3046875 92.515625 C-17.96991189 87.17972616 -19.94357212 82.57492534 -22.00390625 77.6484375 C-23.47802621 73.9666642 -24.32036125 71.77099093 -23 68 C-21.65234375 66.32421875 -21.65234375 66.32421875 -19.9375 64.6875 C-19.31101562 64.08808594 -18.68453125 63.48867188 -18.0390625 62.87109375 C-9.15643044 54.72017276 -9.15643044 54.72017276 -5.92619324 52.70852661 C-3.81819305 51.15775801 -3.81819305 51.15775801 -3.41181946 48.74777222 C-3.37042343 47.86920563 -3.3290274 46.99063904 -3.28637695 46.08544922 C-3.22984451 45.08786591 -3.17331207 44.09028259 -3.11506653 43.06246948 C-3.07322739 41.98740143 -3.03138824 40.91233337 -2.98828125 39.8046875 C-2.92972458 38.70150177 -2.87116791 37.59831604 -2.81083679 36.46170044 C-2.62677559 32.93343687 -2.46870447 29.40459707 -2.3125 25.875 C-2.14064578 22.33868591 -1.96349382 18.80270969 -1.7820282 15.26687622 C-1.67067849 13.0647921 -1.56589306 10.86236497 -1.46809387 8.65963745 C-1.42101791 7.66835846 -1.37394196 6.67707947 -1.32543945 5.65576172 C-1.28643021 4.77878632 -1.24742096 3.90181091 -1.20722961 2.9982605 C-1 1 -1 1 0 0 Z " fill="#22B373" transform="translate(463,357)"/>
<path d="M0 0 C3.82908441 3.60504224 6.86840192 7.4047695 9.75 11.8125 C10.17829102 12.46484619 10.60658203 13.11719238 11.04785156 13.78930664 C24.38599691 34.35841489 37.52950239 58.98766632 32.15625 84.3203125 C24.5219984 116.04342177 1.76334819 142.91695878 -19.734375 166.48828125 C-21.60499078 168.56208461 -23.44271473 170.65685378 -25.2734375 172.765625 C-29.04367877 177.08275287 -32.93972378 181.2709321 -36.875 185.4375 C-37.57681396 186.18249756 -38.27862793 186.92749512 -39.00170898 187.69506836 C-43.30221389 192.246175 -47.67577973 196.70730245 -52.1328125 201.10546875 C-54.58096588 203.58947375 -56.85763183 206.1955721 -59.12109375 208.84765625 C-60.51767586 210.44748315 -61.95401936 212.01277582 -63.41015625 213.55859375 C-68.56743934 219.04258255 -72.87266354 224.50342219 -76.72265625 230.98046875 C-77.14417969 231.64691406 -77.56570313 232.31335938 -78 233 C-78.33 233 -78.66 233 -79 233 C-79.32612431 223.25703614 -79.5920895 213.51437937 -79.79658508 203.76811218 C-79.90437839 198.75487841 -80.03672312 193.74390092 -80.20849609 188.73242188 C-80.3895197 183.42406042 -80.518782 178.11645668 -80.61669922 172.80593872 C-80.66366504 170.73731687 -80.72843226 168.6690179 -80.81152344 166.60153198 C-81.45410586 150.16937841 -81.45410586 150.16937841 -77.81518555 144.74047852 C-75.31648635 142.47738194 -72.88517714 140.72655351 -70 139 C-68.29220027 137.37550757 -66.62449243 135.70779973 -65 134 C-64.38125 133.38769531 -63.7625 132.77539062 -63.125 132.14453125 C-42.19618721 110.43088798 -28.9868263 78.54273218 -28.75 48.5 C-28.74274902 47.583396 -28.73549805 46.66679199 -28.72802734 45.72241211 C-28.7621531 40.5947868 -29.32225738 36.31667033 -30.8125 31.375 C-31.37890625 28.6328125 -31.37890625 28.6328125 -31 26 C-27.70140256 22.05451392 -23.95046246 19.18161022 -19.75537109 16.24316406 C-17.26685405 14.48078176 -14.92236114 12.55480988 -12.5625 10.625 C-11.37333984 9.68527344 -11.37333984 9.68527344 -10.16015625 8.7265625 C-8.23638808 7.18893948 -6.36447153 5.60838749 -4.5 4 C-2 2 -2 2 0 2 C0 1.34 0 0.68 0 0 Z " fill="#22B473" transform="translate(441,457)"/>
<path d="M0 0 C1.07688621 0.88273529 2.1537123 1.76554393 3.23046875 2.6484375 C4.16246094 3.39867187 5.09445312 4.14890625 6.0546875 4.921875 C14.76217926 11.96413841 23.24899899 19.2808224 31.671875 26.66015625 C57.68880753 49.71143312 57.68880753 49.71143312 90.10546875 59.2734375 C90.88921875 59.31210937 91.67296875 59.35078125 92.48046875 59.390625 C94.39678242 59.48410372 96.31359194 59.56732245 98.23046875 59.6484375 C94.05302623 62.97873518 89.68588047 64.68967679 84.73046875 66.5859375 C83.80935303 66.93857666 82.8882373 67.29121582 81.93920898 67.65454102 C72.56522574 71.10626644 63.06686987 73.05503949 53.23046875 74.6484375 C52.30741943 74.8227832 51.38437012 74.99712891 50.43334961 75.17675781 C43.92592807 76.13508836 37.29859129 75.93774159 30.73046875 75.9609375 C29.95123047 75.96455292 29.17199219 75.96816833 28.36914062 75.97189331 C14.39517326 75.99795073 0.59827628 75.10437334 -12.76953125 70.6484375 C-14.171875 69.15234375 -14.171875 69.15234375 -15.70703125 67.2109375 C-39.35137345 39.51045292 -75.84471304 28.43302435 -110.76953125 25.6484375 C-110.46015625 24.9059375 -110.15078125 24.1634375 -109.83203125 23.3984375 C-109.30609375 22.0371875 -109.30609375 22.0371875 -108.76953125 20.6484375 C-108.49496094 20.03097656 -108.22039062 19.41351563 -107.9375 18.77734375 C-107.66170767 15.28183629 -109.47820069 12.58280104 -111.08203125 9.5859375 C-111.43652344 8.89854492 -111.79101562 8.21115234 -112.15625 7.50292969 C-114.23884607 3.4831602 -116.38610056 -0.50164735 -118.53125 -4.48828125 C-118.98653076 -5.33962646 -119.44181152 -6.19097168 -119.91088867 -7.06811523 C-120.80481772 -8.73501581 -121.70711928 -10.39745791 -122.6184082 -12.05493164 C-123.02921631 -12.81797607 -123.44002441 -13.58102051 -123.86328125 -14.3671875 C-124.23130859 -15.04040039 -124.59933594 -15.71361328 -124.97851562 -16.40722656 C-125.76953125 -18.3515625 -125.76953125 -18.3515625 -125.76953125 -22.3515625 C-80.77461675 -43.7437564 -37.02944828 -30.05795272 0 0 Z " fill="#22B373" transform="translate(604.76953125,281.3515625)"/>
<path d="M0 0 C2.98152338 2.82390981 5.30688113 5.74153288 7.625 9.125 C25.34530208 33.73653067 51.65089024 43.00747413 79.96386719 49.53955078 C101.26496784 54.55138536 123.42819277 60.61100008 142.4375 71.6875 C143.0960498 72.06841797 143.75459961 72.44933594 144.43310547 72.84179688 C146.24609375 73.94921875 146.24609375 73.94921875 149 76 C149 79.57657166 148.13009165 80.61789027 146.1875 83.5625 C139.20934505 95.09377732 139.62725225 105.86781013 140 119 C135.86502219 117.55615949 132.72039326 115.50893836 129.1875 112.9375 C116.34823626 103.86557814 102.90049766 97.02271501 88 92 C87.34064453 91.7740918 86.68128906 91.54818359 86.00195312 91.31542969 C72.93899714 86.99868636 58.65273164 86.53000464 45.1171875 88.8046875 C41.79931937 89.19763639 41.33929265 89.2469031 38.50390625 87.18359375 C37.86324219 86.27738281 37.22257812 85.37117188 36.5625 84.4375 C35.45261719 82.91382813 35.45261719 82.91382813 34.3203125 81.359375 C33.75425293 80.53663086 33.75425293 80.53663086 33.17675781 79.69726562 C31.98642812 77.98042496 30.74837945 76.30974533 29.4921875 74.640625 C14.76397708 54.8856062 -2.80887344 25.59195803 0 0 Z " fill="#016838" transform="translate(83,96)"/>
<path d="M0 0 C0.66 0 1.32 0 2 0 C2.70125 0.721875 3.4025 1.44375 4.125 2.1875 C10.21014355 8.44953726 17.7945903 11.44612692 26 14 C27.86591797 14.58587891 27.86591797 14.58587891 29.76953125 15.18359375 C46.87933369 20.23785959 64.75389516 22.1618186 82.38134766 24.60888672 C162.64872869 35.75699372 162.64872869 35.75699372 192 61 C192.83917969 61.70253906 193.67835938 62.40507812 194.54296875 63.12890625 C198.81447751 66.80114951 202.52270862 70.57435643 206 75 C206.66 75.66 207.32 76.32 208 77 C207.34 77 206.68 77 206 77 C206 77.66 206 78.32 206 79 C189.64851409 80.96982813 173.47998378 82.23505524 157 82 C157 82.66 157 83.32 157 84 C154.525 84.495 154.525 84.495 152 85 C151.67 84.01 151.34 83.02 151 82 C139.91974514 74.13659333 127.85023348 69.15484373 115 65 C114.11570312 64.7102832 113.23140625 64.42056641 112.3203125 64.12207031 C100.21122136 60.19004603 88.00711944 56.89019719 75.59912109 54.04077148 C44.87719242 46.97427215 20.42693522 32.65538318 3 6 C2.67 7.98 2.34 9.96 2 12 C1.67 12 1.34 12 1 12 C0.01751476 7.9472484 -0.08159574 4.16138263 0 0 Z " fill="#22B373" transform="translate(81,91)"/>
<path d="M0 0 C0.023407 14.70831363 0.0410174 29.41662477 0.05181217 44.12495327 C0.05695859 50.95497194 0.06396964 57.78497901 0.07543945 64.61499023 C0.08650781 71.2091119 0.0922884 77.80322469 0.09487724 84.39735603 C0.09672166 86.91027071 0.10032333 89.42318475 0.10573006 91.93609428 C0.11301282 95.46188647 0.11398789 98.98762921 0.11352539 102.51342773 C0.11712067 103.54705444 0.12071594 104.58068115 0.12442017 105.64562988 C0.11611906 111.51268397 -0.24161265 117.180845 -1 123 C-22.92149649 109.50984831 -41.22896844 80.82955418 -47.71875 56.28125 C-48.16829098 54.19220664 -48.58753847 52.09667945 -49 50 C-49.33 49.67 -49.66 49.34 -50 49 C-52.27119937 40.39596735 -52.21479953 31.52034851 -52.25 22.6875 C-52.259104 21.56674072 -52.26820801 20.44598145 -52.27758789 19.29125977 C-52.25527452 13.17420896 -51.79702666 7.85459875 -50 2 C-47.23205332 3.28365269 -45.01702326 4.67311204 -42.72265625 6.6796875 C-42.12646484 7.19660156 -41.53027344 7.71351563 -40.91601562 8.24609375 C-39.99852539 9.05240234 -39.99852539 9.05240234 -39.0625 9.875 C-37.8457139 10.93565554 -36.62827765 11.99556576 -35.41015625 13.0546875 C-34.83281738 13.55709961 -34.25547852 14.05951172 -33.66064453 14.57714844 C-31.48474436 16.44147455 -29.25304043 18.23005932 -27 20 C-22.48120696 18.57344672 -19.58458468 16.04717204 -16.25 12.8125 C-2.67849062 0 -2.67849062 0 0 0 Z " fill="#22B372" transform="translate(350,482)"/>
<path d="M0 0 C17.73199366 8.86599683 29.82769317 24.44257903 38.875 41.625 C39.32721924 42.48311279 39.77943848 43.34122559 40.24536133 44.2253418 C46.76648544 56.99400193 46.76648544 56.99400193 48 63 C46.8063901 66.29197683 44.97377843 68.19018301 42.4375 70.5625 C37.5156937 75.37808027 33.23302488 80.57515258 29 86 C28.5678418 86.55042969 28.13568359 87.10085937 27.69042969 87.66796875 C11.21035244 108.44950928 11.21035244 108.44950928 4 133 C2.68 133.33 1.36 133.66 0 134 C0 89.78 0 45.56 0 0 Z " fill="#25B575" transform="translate(359,30)"/>
<path d="M0 0 C0 42.9 0 85.8 0 130 C-0.99 130 -1.98 130 -3 130 C-3.18175781 129.27554688 -3.36351562 128.55109375 -3.55078125 127.8046875 C-4.92220065 122.5299975 -6.3143615 117.77446844 -9 113 C-9.58007812 111.8553125 -9.58007812 111.8553125 -10.171875 110.6875 C-19.14444774 93.34724707 -32.2418464 77.7581536 -46 64 C-45.20673468 42.97846906 -28.1736806 22.1736806 -14 8 C-5.18858954 0 -5.18858954 0 0 0 Z " fill="#026839" transform="translate(350,32)"/>
<path d="M0 0 C-0.43050675 5.05845429 -1.69804193 8.82656744 -3.85742188 13.40112305 C-4.99124679 15.98009018 -5.9047666 18.5446646 -6.77734375 21.22265625 C-7.12563232 22.27686768 -7.4739209 23.3310791 -7.83276367 24.41723633 C-8.65865692 26.95226736 -9.47438256 29.48937187 -10.2824707 32.0300293 C-11.45828288 35.7042939 -12.70137484 39.35147654 -13.97705078 42.9921875 C-14.49234314 44.49737504 -14.98625452 46.01005244 -15.45849609 47.52929688 C-17.97099437 55.55960796 -20.17225184 61.70111919 -27.90545654 65.78143311 C-30.59723221 67.01631554 -33.33366124 68.09451883 -36.09690857 69.15753174 C-41.30557101 71.46332363 -45.6436896 75.40269536 -50 79 C-50.78761719 79.62390625 -51.57523437 80.2478125 -52.38671875 80.890625 C-58.05772488 85.60161788 -62.37864197 91.05626332 -66.73828125 96.94921875 C-68.76699553 99.68570555 -70.8549627 102.35429037 -73 105 C-73.69867188 104.08476562 -74.39734375 103.16953125 -75.1171875 102.2265625 C-76.03638138 101.02598274 -76.95565644 99.82546514 -77.875 98.625 C-78.33519531 98.02171875 -78.79539062 97.4184375 -79.26953125 96.796875 C-81.09372941 94.41748609 -82.87741212 92.12258788 -85 90 C-83.38976748 74.71922201 -60.53208869 53.18399231 -49.828125 42.828125 C-47.94234868 40.94234868 -46.22367419 38.97174611 -44.5 36.9375 C-41.64616225 33.62833083 -38.60926613 30.78514657 -35.27734375 27.96484375 C-33.08988553 26.07755132 -30.97752489 24.12373287 -28.87011719 22.14794922 C-21.91526056 15.64509013 -14.5384069 9.8067379 -7 4 C-5.62134766 2.85337891 -5.62134766 2.85337891 -4.21484375 1.68359375 C-2 0 -2 0 0 0 Z " fill="#23B373" transform="translate(492,60)"/>
<path d="M0 0 C12.94660513 3.98821908 25.15384437 8.40046219 37 15 C37.67981934 15.37495605 38.35963867 15.74991211 39.06005859 16.13623047 C73.46512898 35.27141091 113.24200741 64.64109139 127 103 C120.36381872 100.85201305 113.82925875 98.4852442 107.3125 96 C106.40177734 95.65710938 105.49105469 95.31421875 104.55273438 94.9609375 C100.78350261 93.52660384 97.21697521 92.11802638 93.66796875 90.1875 C90.58613302 88.81578981 89.16183287 88.97705407 86 90 C85.35675781 89.030625 84.71351563 88.06125 84.05078125 87.0625 C74.71918405 73.15789495 64.35663765 60.30467001 53 48 C52.09386355 46.99195253 51.18898141 45.98277657 50.28515625 44.97265625 C45.69681631 39.86704219 41.07813287 34.97431005 35.8046875 30.55859375 C34.04479256 29.03868448 32.47205893 27.43843294 30.875 25.75 C22.39359508 17.13304751 10.80388804 7.40194402 0 2 C0 1.34 0 0.68 0 0 Z " fill="#23B373" transform="translate(217,58)"/>
<path d="M0 0 C2.04119788 1.61594832 4.04072937 3.2856382 6 5 C6 5.66 6 6.32 6 7 C6.69561035 6.9685791 7.3912207 6.9371582 8.10791016 6.90478516 C11.2799385 6.77955265 14.45144639 6.70186808 17.625 6.625 C18.71941406 6.57472656 19.81382812 6.52445312 20.94140625 6.47265625 C29.14401284 6.32351795 29.14401284 6.32351795 31.69042969 8.3359375 C32.57932824 9.42996648 33.46556258 10.52616551 34.34912109 11.62451172 C38.04029089 14.69994068 43.44411032 13.84904108 48 13.75 C49.06734375 13.77320313 50.1346875 13.79640625 51.234375 13.8203125 C56.82725787 13.971063 56.82725787 13.971063 61.65087891 11.62451172 C62.08835449 11.08068848 62.52583008 10.53686523 62.9765625 9.9765625 C64.88140022 7.63214685 65.66309437 7.0614551 68.69824219 6.5078125 C71.94216606 6.41088854 75.1331819 6.47608256 78.375 6.625 C80.05142578 6.66560547 80.05142578 6.66560547 81.76171875 6.70703125 C84.50980752 6.77749506 87.2538945 6.87595771 90 7 C90.28617187 6.36578125 90.57234375 5.7315625 90.8671875 5.078125 C92.22655542 2.58438799 93.41080309 2.03567876 96 1 C96.02730408 2.56240032 96.04653226 4.1249427 96.0625 5.6875 C96.07410156 6.55761719 96.08570313 7.42773438 96.09765625 8.32421875 C95.91169978 13.41942605 95.91169978 13.41942605 95 16 C92.26293945 17.66577148 92.26293945 17.66577148 88.61328125 19.12109375 C87.95982224 19.38833755 87.30636322 19.65558136 86.63310242 19.93092346 C84.53319549 20.78505873 82.42368847 21.61169745 80.3125 22.4375 C78.94131963 22.98840188 77.57086731 23.54111958 76.20117188 24.09570312 C74.15734837 24.92303546 72.11251666 25.74639526 70.06130981 26.55526733 C66.69980216 27.88379412 63.3823573 29.26049384 60.10302734 30.78173828 C59.48155319 31.06565933 58.86007904 31.34958038 58.21977234 31.6421051 C56.53134682 32.42039402 54.85161993 33.21747615 53.17260742 34.01586914 C47.47874255 35.78208455 42.7531843 34.1584325 37.48046875 31.77734375 C36.465896 31.32464111 35.45132324 30.87193848 34.40600586 30.40551758 C33.34389893 29.92107178 32.28179199 29.43662598 31.1875 28.9375 C29.54309937 28.20019653 29.54309937 28.20019653 27.86547852 27.44799805 C25.63986517 26.44962693 23.41580908 25.44777673 21.19335938 24.44238281 C17.40970116 22.73337266 13.61569071 21.04855071 9.81958008 19.36743164 C6.54405954 17.91682959 3.27204529 16.45842121 0 15 C0 10.05 0 5.1 0 0 Z " fill="#016838" transform="translate(307,354)"/>
<path d="M0 0 C7.81174873 8.35675446 9.07664686 17.45882942 8.8984375 28.46875 C8.2791633 45.9307535 1.98182519 63.73190715 -4.3125 79.875 C-5.60126232 76.00871305 -4.63106266 74.69749983 -3.3125 70.875 C-2.67585217 67.95530013 -2.2075493 65.01500498 -1.75 62.0625 C-1.62069092 61.24096436 -1.49138184 60.41942871 -1.3581543 59.57299805 C-0.12965757 51.36494216 0.37977431 43.16237113 0.6875 34.875 C-0.26125 35.535 -1.21 36.195 -2.1875 36.875 C-5.3125 38.875 -5.3125 38.875 -7.3125 38.875 C-6.9825 33.595 -6.6525 28.315 -6.3125 22.875 C-7.9625 23.535 -9.6125 24.195 -11.3125 24.875 C-17.63218797 25.49660865 -22.09148683 24.58891658 -27.3125 20.875 C-30.99446794 17.28887505 -34.2689422 14.05288983 -34.375 8.75 C-34.354375 7.80125 -34.33375 6.8525 -34.3125 5.875 C-34.97636719 6.00777344 -35.64023437 6.14054688 -36.32421875 6.27734375 C-40.65364583 7.14322917 -44.98307292 8.00911458 -49.3125 8.875 C-37.66618907 -7.18697384 -16.09923543 -10.32781141 0 0 Z " fill="#04693A" transform="translate(309.3125,249.125)"/>
<path d="M0 0 C2.8828125 1.9140625 2.8828125 1.9140625 6.8828125 6.9140625 C1.9328125 5.9240625 -3.0171875 4.9340625 -8.1171875 3.9140625 C-8.1378125 5.0690625 -8.1584375 6.2240625 -8.1796875 7.4140625 C-8.8727984 12.98865443 -12.05758084 16.25789501 -16.1171875 19.9140625 C-20.83398351 23.1953119 -25.50942754 23.69914889 -31.1171875 22.9140625 C-32.4371875 22.2540625 -33.7571875 21.5940625 -35.1171875 20.9140625 C-35.1171875 26.1940625 -35.1171875 31.4740625 -35.1171875 36.9140625 C-40.1171875 34.9140625 -40.1171875 34.9140625 -43.1171875 32.9140625 C-42.78895633 43.42877832 -42.09966406 53.41957061 -39.81640625 63.7109375 C-39.0017271 67.44298725 -38.50460611 71.11736008 -38.1171875 74.9140625 C-40.55618418 71.97478074 -41.77945305 69.42577716 -42.8359375 65.765625 C-43.12718506 64.76740723 -43.41843262 63.76918945 -43.71850586 62.74072266 C-44.0150708 61.6841748 -44.31163574 60.62762695 -44.6171875 59.5390625 C-44.92470947 58.45286621 -45.23223145 57.36666992 -45.54907227 56.24755859 C-46.41907673 53.14003533 -47.27146468 50.02826887 -48.1171875 46.9140625 C-48.31940918 46.18703125 -48.52163086 45.46 -48.72998047 44.7109375 C-52.28537622 31.70522469 -53.78613498 16.14408671 -47.1171875 3.9140625 C-35.49909385 -14.54277524 -15.68932632 -8.27942762 0 0 Z " fill="#046A3B" transform="translate(438.1171875,251.0859375)"/>
<path d="M0 0 C2.52221361 1.73048737 4.94832338 3.54153807 7.36328125 5.41796875 C8.39453125 6.16046875 9.42578125 6.90296875 10.48828125 7.66796875 C14.76999836 11.76352425 18.00683689 16.5536801 21.36328125 21.41796875 C17.84965517 21.41796875 17.13470626 20.75299766 14.36328125 18.73046875 C4.86895891 12.18373014 -4.99052945 8.15471196 -16.63671875 9.41796875 C-22.73907423 11.27856055 -28.69589217 14.12076905 -32.01171875 19.75390625 C-41.02823665 37.22340968 -36.20302856 56.7193278 -30.63085938 74.65576172 C-28.64645728 80.80144417 -26.56680179 86.91075927 -24.40527344 92.99633789 C-23.62526007 95.45407379 -23.09472852 97.88223442 -22.63671875 100.41796875 C-26.14062333 97.27224108 -28.34956962 93.79790445 -30.51171875 89.66796875 C-31.02835083 88.68812012 -31.02835083 88.68812012 -31.55541992 87.68847656 C-36.9594549 77.16832138 -40.96142288 65.93414302 -43.63671875 54.41796875 C-43.84167969 53.62132812 -44.04664063 52.8246875 -44.2578125 52.00390625 C-47.69303796 36.69938453 -47.30404664 19.12653491 -39.15234375 5.42578125 C-29.80574496 -6.95605322 -12.67271088 -7.60362653 0 0 Z " fill="#F2F9F5" transform="translate(424.63671875,234.58203125)"/>
<path d="M0 0 C3.16605045 1.34231477 5.55730436 3.50096692 8.12109375 5.73828125 C9.15067276 6.62022251 10.18061684 7.50173778 11.2109375 8.3828125 C13.06434175 9.96831338 14.89678301 11.57907592 16.6953125 13.2265625 C23.72505411 18.02709248 35.79040715 14.59592836 43.87109375 13.36328125 C46.70005512 12.98964484 49.33756592 12.83953798 52.18359375 12.92578125 C51.48296892 17.49314566 49.87089168 21.49573175 48.12109375 25.73828125 C47.83943359 26.43115234 47.55777344 27.12402344 47.26757812 27.83789062 C46.57684402 29.53545749 45.88075647 31.23084437 45.18359375 32.92578125 C40.26430329 32.53349333 36.94147048 30.84465011 32.76489258 28.43286133 C17.77472959 19.77816345 4.20943889 17.83788497 -12.81640625 19.92578125 C-13.63238281 20.00570313 -14.44835937 20.085625 -15.2890625 20.16796875 C-21.86134673 21.17530951 -27.53901003 24.75186945 -33.265625 27.953125 C-41.96828467 32.81506408 -41.96828467 32.81506408 -46.81640625 33.92578125 C-47.9883306 30.80272752 -49.15304501 27.67703386 -50.31640625 24.55078125 C-50.65027344 23.66132813 -50.98414063 22.771875 -51.328125 21.85546875 C-51.64394531 21.0046875 -51.95976562 20.15390625 -52.28515625 19.27734375 C-52.72504883 18.09906006 -52.72504883 18.09906006 -53.17382812 16.89697266 C-53.81640625 14.92578125 -53.81640625 14.92578125 -53.81640625 12.92578125 C-53.17203613 12.98636719 -52.52766602 13.04695313 -51.86376953 13.109375 C-48.89006794 13.38624605 -45.91576344 13.65604788 -42.94140625 13.92578125 C-41.92820312 14.02117187 -40.915 14.1165625 -39.87109375 14.21484375 C-36.85457355 14.4855571 -33.83716205 14.70817278 -30.81640625 14.92578125 C-29.92783936 15.02036621 -29.03927246 15.11495117 -28.1237793 15.21240234 C-22.08291779 15.6273302 -18.98534957 14.3219083 -14.39648438 10.40234375 C-13.73068359 9.79132813 -13.06488281 9.1803125 -12.37890625 8.55078125 C-11.00558618 7.35503466 -9.63190294 6.159705 -8.2578125 4.96484375 C-7.66685791 4.43068848 -7.07590332 3.8965332 -6.46704102 3.34619141 C-2.46160397 -0.10058167 -2.46160397 -0.10058167 0 0 Z " fill="#066B3C" transform="translate(355.81640625,402.07421875)"/>
<path d="M0 0 C14.24204844 -2.20751751 31.89985472 0.50690436 46 3 C40.82358407 9.18644831 35.44864572 14.94065076 29.3125 20.1875 C25.11703982 23.79412366 21.24899373 27.69176361 17.38793945 31.64916992 C14.09053565 35.00398709 10.65600354 38.03831167 7 41 C1.05408157 38.47009518 -1.79206684 33.13401525 -4.875 27.6875 C-7.59054878 18.78653457 -6.18132701 11.17953022 -2 3 C-1.34 2.01 -0.68 1.02 0 0 Z " fill="#016939" transform="translate(236,189)"/>
<path d="M0 0 C2.5 2.6875 2.5 2.6875 4 6 C4.35191406 6.74378906 4.70382812 7.48757812 5.06640625 8.25390625 C7.18172951 14.47596588 7.19492922 22.58183593 5.01953125 28.8046875 C3.8112859 31.01298824 2.51601665 32.99312409 1 35 C0.319375 35.99 -0.36125 36.98 -1.0625 38 C-3 40 -3 40 -4.76171875 40.96875 C-7 41 -7 41 -9.734375 38.71875 C-10.75155518 37.65717643 -11.75613266 36.58343051 -12.75 35.5 C-13.82486965 34.37443355 -14.90168932 33.250726 -15.98046875 32.12890625 C-16.50044434 31.58379395 -17.02041992 31.03868164 -17.55615234 30.47705078 C-19.30563068 28.68734095 -21.14911767 27.04981182 -23.0625 25.4375 C-26.37673804 22.61936412 -29.44692653 19.59520276 -32.5 16.5 C-36.40128731 12.54974256 -40.38130295 8.80684442 -44.63671875 5.2421875 C-45.08660156 4.83226562 -45.53648437 4.42234375 -46 4 C-46 3.67 -46 3.34 -46 3 C-41.05661173 2.5672713 -36.11277326 2.14025581 -31.16845703 1.71826172 C-29.49059109 1.57427898 -27.81285246 1.4288037 -26.13525391 1.28173828 C-3.79887375 -0.67385903 -3.79887375 -0.67385903 0 0 Z " fill="#016839" transform="translate(471,189)"/>
<path d="M0 0 C0.66 0.33 1.32 0.66 2 1 C1.46109131 1.52843506 0.92218262 2.05687012 0.36694336 2.60131836 C-2.11500393 5.04122129 -4.58875808 7.48927936 -7.0625 9.9375 C-7.91005859 10.76830078 -8.75761719 11.59910156 -9.63085938 12.45507812 C-14.88581699 17.66945692 -19.62691992 23.02439067 -24 29 C-24 25.09330712 -22.72149765 24.0926012 -20.25 21.125 C-19.55390625 20.28195312 -18.8578125 19.43890625 -18.140625 18.5703125 C-17.43421875 17.72210938 -16.7278125 16.87390625 -16 16 C-15.33484375 15.14277344 -14.6696875 14.28554688 -13.984375 13.40234375 C-12.11969618 11.14490777 -10.23512871 9.31902436 -8 7.4375 C-5.21426889 5.05715513 -2.54032934 2.6461764 0 0 Z " fill="#34B67C" transform="translate(147,338)"/>
<path d="M0 0 C1.32 0.33 2.64 0.66 4 1 C4.6986179 3.91440599 5.3842031 6.83086087 6.0625 9.75 C6.36124023 10.9875 6.36124023 10.9875 6.66601562 12.25 C6.84970703 13.04921875 7.03339844 13.8484375 7.22265625 14.671875 C7.39547119 15.4050293 7.56828613 16.13818359 7.74633789 16.89355469 C8.02424428 19.20132783 7.69809241 20.79916037 7 23 C5.04166001 17.6816655 3.09513364 12.35883312 1.25 7 C1.00765625 6.29875 0.7653125 5.5975 0.515625 4.875 C0 3 0 3 0 0 Z " fill="#0B7342" transform="translate(392,303)"/>
<path d="M0 0 C2.32036923 0.73054205 4.62925915 1.48282957 6.9375 2.25 C7.59685547 2.45496094 8.25621094 2.65992188 8.93554688 2.87109375 C10.83984375 3.515625 10.83984375 3.515625 14 5 C14.94140625 7.171875 14.94140625 7.171875 15 9 C14.01 9.33 13.02 9.66 12 10 C9.58984375 8.6015625 9.58984375 8.6015625 6.9375 6.625 C3.59568792 4.10492378 3.59568792 4.10492378 0 2 C0 1.34 0 0.68 0 0 Z " fill="#1EAB6D" transform="translate(217,58)"/>
<path d="M0 0 C0.66 0.33 1.32 0.66 2 1 C1.360625 1.5775 0.72125 2.155 0.0625 2.75 C-2.13541667 4.75 -2.13541667 4.75 -2.375 7 C-3.40368708 10.29179865 -6.15607681 11.30574788 -9 13 C-9.66 12.67 -10.32 12.34 -11 12 C-7.72469104 7.36279281 -4.69564393 3.31457218 0 0 Z " fill="#E0F2EA" transform="translate(490,213)"/>
<path d="M0 0 C0.66 0.33 1.32 0.66 2 1 C1.38125 1.2475 0.7625 1.495 0.125 1.75 C-2.14890939 2.80802664 -2.14890939 2.80802664 -2.875 5 C-4 7 -4 7 -7.125 8.25 C-8.07375 8.4975 -9.0225 8.745 -10 9 C-10 8.01 -10 7.02 -10 6 C-7.8828125 4.359375 -7.8828125 4.359375 -5.125 2.75 C-3.76761719 1.93789063 -3.76761719 1.93789063 -2.3828125 1.109375 C-1.20332031 0.56023437 -1.20332031 0.56023437 0 0 Z " fill="#3FB782" transform="translate(16,333)"/>
<path d="M0 0 C0.33 1.32 0.66 2.64 1 4 C-2.28463659 6.18975773 -5.20696275 6.99806563 -9 8 C-6.35039045 4.36905358 -3.98175544 2.10148204 0 0 Z " fill="#0E7242" transform="translate(269,250)"/>
<path d="M0 0 C0.33 0 0.66 0 1 0 C2.3431603 5.22786943 1.49026317 8.39102693 -0.4375 13.375 C-0.68048828 14.01566406 -0.92347656 14.65632813 -1.17382812 15.31640625 C-1.76987426 16.88248824 -2.38319385 18.44197755 -3 20 C-4.29773572 16.10679283 -3.31681963 14.8811526 -2 11 C-1.25031503 7.34717255 -0.61512535 3.67766434 0 0 Z " fill="#0C7945" transform="translate(308,309)"/>
<path d="M0 0 C1.65 1.65 3.3 3.3 5 5 C4.01 5 3.02 5 2 5 C1.67 8.3 1.34 11.6 1 15 C0.67 15 0.34 15 0 15 C0 10.05 0 5.1 0 0 Z " fill="#37865F" transform="translate(307,354)"/>
<path d="M0 0 C0.33 0.66 0.66 1.32 1 2 C-5.75 5.875 -5.75 5.875 -8 7 C-8.66 6.67 -9.32 6.34 -10 6 C-10 5.34 -10 4.68 -10 4 C-6.7 2.68 -3.4 1.36 0 0 Z " fill="#0B7140" transform="translate(492,58)"/>
<path d="M0 0 C1.32 1.32 2.64 2.64 4 4 C3.01 6.64 2.02 9.28 1 12 C0.67 12 0.34 12 0 12 C0 8.04 0 4.08 0 0 Z " fill="#157346" transform="translate(83,96)"/>
<path d="M0 0 C0.33 0 0.66 0 1 0 C0.67 3.96 0.34 7.92 0 12 C-2.19398174 9.80601826 -2.6546935 9.02143183 -3 6 C-1.55172414 1.55172414 -1.55172414 1.55172414 0 0 Z " fill="#3CB37E" transform="translate(628,91)"/>
<path d="M0 0 C2.88575819 0.39803561 3.82189513 0.79009069 5.75 3.0625 C6.36875 4.0215625 6.36875 4.0215625 7 5 C2.545 4.01 2.545 4.01 -2 3 C-1.34 2.67 -0.68 2.34 0 2 C0 1.34 0 0.68 0 0 Z " fill="#107646" transform="translate(438,253)"/>
<path d="M0 0 C0.66 0 1.32 0 2 0 C3.16063604 4.25566547 2.76173392 7.6835078 2 12 C1.67 12 1.34 12 1 12 C0.01751476 7.9472484 -0.08159574 4.16138263 0 0 Z " fill="#5BA584" transform="translate(81,91)"/>
<path d="M0 0 C1.32 0.66 2.64 1.32 4 2 C3.236875 2.45375 2.47375 2.9075 1.6875 3.375 C-0.23632814 4.53824492 -2.12941224 5.7529415 -4 7 C-4 4 -4 4 -2 1.8125 C-1.34 1.214375 -0.68 0.61625 0 0 Z " fill="#106E41" transform="translate(373,361)"/>
<path d="M0 0 C0.99 0 1.98 0 3 0 C5.125 4.625 5.125 4.625 4 8 C0 2.25 0 2.25 0 0 Z " fill="#E1F1E9" transform="translate(397,327)"/>
</svg>
