<svg xmlns="http://www.w3.org/2000/svg" width="708" height="708" viewBox="0 0 708 708" version="1.1"><path d="M 343.360 35.335 C 327.593 46.998, 314.171 65.802, 306.631 86.794 L 304.011 94.088 313.767 105.377 C 332.283 126.804, 352.051 159.282, 348.648 162.685 C 348.463 162.871, 338.753 159.169, 327.071 154.459 C 311.541 148.196, 305.491 146.178, 304.563 146.948 C 303.600 147.747, 302.207 146.373, 298.786 141.250 C 286.485 122.832, 267.493 101.123, 249.858 85.325 C 233.778 70.920, 217.570 58.260, 218.199 60.597 C 218.610 62.124, 233.799 103.163, 239.435 117.975 C 240.533 120.861, 242.100 122.132, 248.678 125.475 C 264.038 133.281, 277.522 145.042, 286.837 158.760 L 290.849 164.668 288.609 167.275 C 286.062 170.238, 283.858 170.616, 264 171.496 C 249.314 172.146, 236.081 173.205, 237.500 173.617 C 238.050 173.777, 251.057 175.534, 266.405 177.521 L 294.310 181.135 300.405 175.297 C 303.757 172.087, 307.900 168.207, 309.610 166.677 L 312.720 163.894 331.610 174.057 C 342 179.647, 351.518 184.860, 352.761 185.641 C 355.102 187.111, 364.513 182.745, 390 168.367 L 397.500 164.136 406.193 172.638 C 414.879 181.133, 414.888 181.139, 419.193 180.551 C 421.562 180.228, 435.343 178.622, 449.818 176.983 C 474.841 174.149, 476.342 173.861, 480.326 171.120 C 493.790 161.856, 509.010 156.085, 543.806 147.049 C 592.308 134.454, 608.367 124.457, 626.610 95.500 L 628.500 92.500 626 94.266 C 608.450 106.660, 595.581 110.398, 549.500 116.489 C 481.120 125.527, 451.394 136.522, 428.478 161.252 L 422.221 168.005 415.317 159.252 C 411.519 154.439, 408.075 149.949, 407.663 149.276 C 403.773 142.919, 452.493 89.506, 484.853 64.648 C 488.898 61.542, 491.918 59, 491.566 59 C 489.655 59, 471.184 66.804, 461.051 71.893 C 420.207 92.404, 386.143 123.087, 370.204 153.725 C 367.339 159.232, 365.239 162.085, 363.731 162.518 C 362.504 162.871, 360.123 163.779, 358.441 164.536 C 356.758 165.293, 354.396 165.655, 353.191 165.340 L 351 164.767 351 97.883 C 351 59.473, 350.621 31, 350.110 31 C 349.621 31, 346.583 32.951, 343.360 35.335 M 82 94.237 C 82 119.327, 115.129 185.483, 127.076 184.250 C 159.300 180.922, 182.113 187.331, 212.988 208.386 C 223.974 215.878, 223.164 215.801, 222.129 209.251 C 220.562 199.342, 224.278 185.441, 231.024 175.967 L 233.093 173.061 228.296 170.004 C 214.310 161.088, 198.939 155.349, 168.437 147.655 C 120.678 135.607, 100.395 123.640, 85.735 98.860 C 83.681 95.387, 82 93.307, 82 94.237 M 235.633 191.161 C 227.965 202.883, 229.356 218.260, 238.912 227.415 L 241.891 230.270 245.195 227.490 C 250.047 223.409, 282.058 192.722, 281.757 192.440 C 281.616 192.308, 274.075 191.703, 265 191.095 C 255.925 190.488, 245.949 189.728, 242.831 189.407 C 237.664 188.874, 237.027 189.029, 235.633 191.161 M 448 190.519 C 438.375 191.231, 429.263 191.969, 427.750 192.157 C 425.220 192.473, 426.571 193.981, 444.622 211 C 467.447 232.521, 465.146 231.033, 469.097 226.828 C 477.365 218.029, 479.270 205.177, 473.890 194.500 C 470.878 188.524, 472.199 188.727, 448 190.519 M 543.500 196.399 C 527.902 199.416, 510.472 207.032, 490.555 219.535 C 472.085 231.130, 470.846 232.703, 465.732 251.063 L 461.396 266.625 471.217 282.959 C 481.014 299.252, 481.034 299.299, 479.317 301.896 C 478.371 303.328, 468.885 318, 458.238 334.500 L 438.880 364.500 424.190 372 L 409.500 379.500 424.250 379.777 C 442.549 380.120, 442.573 380.400, 425.027 388.806 C 407.838 397.041, 407.838 397, 425 397 L 439 397 439 403.060 C 439 409.101, 438.979 409.144, 432.030 417.396 L 425.060 425.673 424.780 439.071 L 424.500 452.470 407.669 462.196 L 390.838 471.923 354.169 472.211 L 317.500 472.500 301.143 462.932 L 284.786 453.364 284.927 439.932 L 285.068 426.500 280.907 421.500 C 268.760 406.905, 269.722 408.705, 270.497 402.024 L 271.196 396 283.848 395.948 L 296.500 395.896 283.684 389.407 C 266.676 380.796, 266.710 379.693, 284.011 379 L 296.500 378.500 283.750 372.554 C 276.738 369.283, 271 366.261, 271 365.837 C 271 365.414, 267.694 359.989, 263.654 353.784 C 222.926 291.230, 226.690 301.863, 238.423 282.497 C 243.690 273.803, 248 266.568, 248 266.419 C 248 252.905, 236.463 236.597, 234.692 247.607 C 232.540 260.984, 233.240 260.327, 224.884 256.816 C 178.119 237.167, 143.784 248.230, 79.111 303.783 C 45.212 332.901, 26.206 343.550, 11.500 341.666 L 7.500 341.153 11 343.049 C 41.458 359.545, 107.048 360.719, 123.500 345.062 C 148.509 321.262, 180.988 307, 210.178 307 C 216.865 307, 217.149 307.102, 218.797 310.078 C 219.733 311.771, 226.042 322.459, 232.816 333.828 C 239.589 345.198, 245.214 354.872, 245.316 355.326 C 245.417 355.781, 242.125 357.167, 238 358.407 C 191.335 372.432, 177.350 396.217, 171.503 471.500 C 166.649 534.001, 151.243 566.074, 117.515 583.894 C 111.964 586.827, 115.044 586.614, 129.525 583.064 C 168.064 573.615, 225.238 545.415, 223.597 536.665 C 220.457 519.930, 233.764 488.470, 255.283 461.750 C 263.241 451.868, 262.597 452.252, 266.177 455.255 L 268.854 457.500 260.962 468.500 C 219.248 526.643, 228.405 558.796, 311.941 647.500 C 337.145 674.264, 341.536 679.199, 344.992 684.648 L 347.681 688.889 348.339 661.194 C 348.700 645.962, 348.997 627.200, 348.998 619.500 L 349 605.500 342.750 600.167 C 311.634 573.619, 291.862 523.780, 298.945 489.750 C 300.422 482.655, 299.003 482.252, 312.556 493.611 L 324.023 503.222 328.747 499.361 C 331.345 497.237, 338.368 491.289, 344.354 486.141 L 355.237 476.783 357.541 479.141 L 359.845 481.500 360.560 543.220 L 361.276 604.940 364.181 602.871 C 396.785 579.655, 419.927 520.918, 410.430 485.485 C 409.926 483.606, 422.204 472.622, 443.946 455.500 L 447.755 452.500 443.231 439.589 L 438.706 426.678 443.603 422.084 C 446.296 419.557, 450.925 415.342, 453.889 412.717 L 459.278 407.945 461.049 382.863 C 463.110 353.660, 462.311 355.336, 472.658 358.514 C 517.968 372.429, 532.274 395.742, 537.999 465 C 543.630 533.123, 554.478 558.585, 587.111 580.276 C 597.845 587.410, 598.330 587.393, 595.336 579.979 C 585.277 555.075, 585.615 524.621, 596.513 474 C 609.095 415.557, 607.579 396.446, 588.008 366.769 C 567.582 335.794, 535.914 317.652, 496.694 314.455 L 488.889 313.819 490.636 311.159 C 491.597 309.697, 493.699 306.388, 495.307 303.806 L 498.230 299.111 488.101 279.549 L 477.973 259.987 483.736 257.427 C 529.945 236.902, 566.487 248.154, 629.328 302.257 C 666.039 333.864, 686.652 345.083, 701 341.268 L 704.500 340.337 700.431 338.241 C 691.497 333.637, 680.224 323.011, 670.556 310.080 C 664.939 302.567, 659.859 294.607, 640.511 263 C 606.405 207.286, 580.206 189.299, 543.500 196.399 M 285.553 244.066 C 279.812 245.023, 268.053 250.679, 263.018 254.905 L 259.536 257.827 264.986 256.414 C 273.784 254.131, 274.642 254.358, 275.411 259.171 C 276.842 268.117, 288.341 275.426, 297.377 273.132 C 302.540 271.822, 302.512 271.780, 302.438 280.589 C 302.371 288.724, 302.532 288.943, 306.368 285.925 C 311.525 281.868, 311.165 298.142, 305.524 324 C 304.329 329.481, 308.036 319.860, 311.415 308.711 C 324.649 265.050, 314.335 239.267, 285.553 244.066 M 408.120 244.082 C 386.150 248.385, 381.892 272.730, 395.656 315.338 C 399.838 328.285, 400.476 328.621, 397.958 316.551 C 393.705 296.159, 394.124 282.528, 398.900 285.929 C 402.871 288.756, 402.763 288.912, 402.624 280.591 C 402.477 271.788, 402.455 271.821, 407.623 273.132 C 416.641 275.421, 428.176 268.006, 429.617 258.994 C 430.352 254.400, 431.300 254.153, 439.782 256.354 C 446.519 258.101, 446.405 257.877, 437.657 252.166 C 427.132 245.295, 416.619 242.418, 408.120 244.082 M 307.547 361.133 C 308.406 370.292, 305.686 368.242, 331.837 379.438 C 358.551 390.874, 351.776 390.882, 378.597 379.382 C 403.986 368.495, 402.086 369.930, 402.747 361.146 L 403.247 354.500 399.826 357.750 L 396.405 361 385.136 361 L 373.866 361 370.183 364.491 L 366.500 367.983 354.946 367.991 L 343.392 368 340 364.500 L 336.608 361 324.907 361 L 313.207 361 310.032 357.383 L 306.856 353.766 307.547 361.133 M 351 405.083 C 349.075 406.734, 344.288 410.550, 340.361 413.563 L 333.223 419.041 317.676 417.207 L 302.129 415.373 303.643 418.936 C 304.476 420.896, 306.295 425.313, 307.685 428.750 C 310.725 436.268, 308.973 436.251, 322.856 428.896 C 345.747 416.770, 363.812 416.967, 387.699 429.604 C 398.703 435.425, 399.986 435.883, 400.791 434.279 C 410.325 415.261, 410.096 414.800, 392.137 416.857 L 376.836 418.609 366.281 410.305 C 354.147 400.758, 355.503 401.221, 351 405.083" stroke="none" fill="#006738" fill-rule="evenodd"/><path d="M 358.764 97.325 C 358.484 168.718, 358.747 172.540, 362.950 158.302 C 367.115 144.197, 383.037 120.036, 400.835 100.811 L 406.370 94.833 405.126 90.166 C 399.554 69.271, 377.556 39.655, 361.264 31.116 L 359.028 29.944 358.764 97.325 M 332.462 44.250 L 327.500 49.500 332.750 44.538 C 335.637 41.808, 338 39.446, 338 39.288 C 338 38.541, 337.074 39.372, 332.462 44.250 M 217.079 59.750 C 217.124 60.746, 217.371 60.974, 217.653 60.279 C 218.247 58.813, 233.540 70.707, 249.858 85.325 C 267.493 101.123, 286.485 122.832, 298.786 141.250 C 302.205 146.370, 303.600 147.747, 304.562 146.948 C 305.489 146.179, 311.052 148.001, 325.201 153.704 L 344.572 161.513 339.697 152.506 C 320.522 117.083, 277.466 81.732, 230.762 63.066 C 216.272 57.275, 216.975 57.445, 217.079 59.750 M 491.566 59.107 C 492.032 59.860, 491.491 59.999, 489.875 59.542 C 488.431 59.133, 487.984 59.208, 488.735 59.735 C 489.599 60.339, 486.887 63.053, 479.735 68.743 C 448.797 93.356, 404.054 143.347, 407.658 149.276 C 409.514 152.328, 422.108 167.867, 420.588 165.228 C 417.519 159.903, 444.980 133.660, 462.156 125.503 L 469.634 121.952 481.323 90.726 C 493.684 57.702, 493.587 58, 491.941 58 C 491.359 58, 491.190 58.498, 491.566 59.107 M 81.116 93.727 C 81.193 95.561, 81.392 95.881, 81.704 94.672 C 82.056 93.311, 83.108 94.418, 85.824 99.009 C 100.387 123.628, 120.773 135.631, 168.437 147.655 C 198.939 155.349, 214.310 161.088, 228.296 170.004 L 233.093 173.061 231.175 175.781 C 223.468 186.707, 220.050 200.881, 222.471 211.875 C 223.003 214.291, 222.891 215.051, 222.079 214.549 C 221.455 214.163, 222.271 215.793, 223.892 218.171 C 227.806 223.911, 227.609 223.900, 217.883 217.861 C 150.317 175.906, 114.539 187.912, 65.489 269 C 38.733 313.232, 26.800 327.879, 9 338.337 C 4.966 340.707, 4.918 341.591, 8.850 341.052 C 9.593 340.950, 9.952 341.269, 9.648 341.761 C 9.324 342.285, 11.638 342.308, 15.233 341.817 C 33.954 339.256, 46.531 331.768, 79.111 303.783 C 143.784 248.230, 178.119 237.167, 224.884 256.816 C 233.240 260.327, 232.540 260.984, 234.692 247.607 C 236.463 236.597, 248 252.905, 248 266.419 C 248 266.568, 243.725 273.746, 238.500 282.370 C 226.965 301.409, 226.527 296.709, 242.047 320.461 C 255.654 341.287, 256.531 342.546, 255.441 339.707 C 254.827 338.108, 255.117 338.121, 259.223 339.881 C 273.256 345.897, 290.737 346.726, 297.339 341.690 C 300.967 338.923, 304.514 332.640, 303.434 330.894 C 303.131 330.402, 303.344 330, 303.910 330 C 304.475 330, 304.650 329.251, 304.299 328.336 C 303.911 327.325, 304.063 326.921, 304.685 327.305 C 305.289 327.678, 305.710 326.821, 305.711 325.219 C 305.712 323.724, 306.425 319.119, 307.294 314.986 C 311.202 296.420, 310.757 282.472, 306.368 285.925 C 302.532 288.943, 302.371 288.724, 302.438 280.589 C 302.512 271.780, 302.540 271.822, 297.377 273.132 C 288.341 275.426, 276.842 268.117, 275.411 259.171 C 274.647 254.390, 273.756 254.139, 265.326 256.326 L 260.215 257.651 263.764 251.076 C 265.715 247.459, 275.498 230.100, 285.504 212.500 C 295.509 194.900, 305.386 177.448, 307.452 173.717 C 309.519 169.986, 311.869 166.274, 312.676 165.467 C 313.483 164.660, 313.750 164, 313.270 164 C 312.790 164, 308.273 167.848, 303.233 172.551 L 294.068 181.103 266.284 177.505 C 251.003 175.526, 238.050 173.777, 237.500 173.617 C 236.081 173.205, 249.314 172.146, 264 171.496 C 291.402 170.282, 291.294 170.363, 280.206 159.350 C 255.978 135.285, 230.804 125.958, 164.546 116.496 C 111.696 108.949, 99.568 105.631, 86.191 95.057 L 81 90.953 81.116 93.727 M 627.222 92.232 C 626.559 93.031, 626.285 93.952, 626.612 94.279 C 627.834 95.500, 616.425 110.326, 608.529 117.777 C 593.863 131.618, 581.231 137.331, 543.806 147.049 C 509.010 156.085, 493.790 161.856, 480.326 171.120 C 476.342 173.861, 474.841 174.149, 449.818 176.983 C 435.343 178.622, 421.562 180.228, 419.193 180.551 C 414.888 181.139, 414.879 181.134, 406.193 172.636 L 397.500 164.132 389 168.902 C 384.325 171.525, 374.875 176.634, 368 180.255 L 355.500 186.839 355.244 272.919 L 354.989 359 360.798 359 C 366.125 359, 366.890 358.709, 370 355.500 L 373.392 352 384.946 351.959 C 396.316 351.919, 396.556 351.871, 400 348.917 L 403.500 345.915 403.823 349.090 C 404.083 351.646, 403.410 353.020, 400.370 356.133 L 396.594 360 385.047 360.214 L 373.500 360.428 384.917 360.748 L 396.334 361.069 399.791 357.784 L 403.247 354.500 402.747 361.146 C 402.086 369.930, 403.986 368.495, 378.597 379.382 C 351.755 390.891, 358.646 390.935, 331.035 379.079 L 307.928 369.158 308.158 373.046 L 308.387 376.934 332.372 389.717 C 350.217 399.228, 358.978 404.562, 366.596 410.555 L 376.836 418.609 392.137 416.857 C 410.096 414.800, 410.325 415.261, 400.791 434.279 C 399.986 435.883, 398.703 435.425, 387.699 429.604 C 377.015 423.951, 374.196 422.920, 365 421.299 L 354.500 419.447 354.792 429.974 L 355.084 440.500 337.792 449.656 L 320.500 458.812 304.500 455.920 C 295.700 454.330, 287.375 452.765, 286 452.444 C 281.958 451.498, 284.380 453.173, 301.500 463.163 L 317.500 472.500 354.169 472.211 L 390.838 471.923 407.669 462.196 L 424.500 452.470 424.780 439.071 L 425.060 425.673 432.030 417.396 C 438.979 409.144, 439 409.101, 439 403.060 L 439 397 425 397 C 407.838 397, 407.838 397.041, 425.027 388.806 C 442.573 380.400, 442.549 380.120, 424.250 379.777 L 409.500 379.500 424.190 372 L 438.880 364.500 458.238 334.500 C 468.885 318, 478.371 303.328, 479.317 301.896 C 481.034 299.299, 481.014 299.252, 471.217 282.959 L 461.396 266.625 465.744 251.063 C 469.962 235.963, 470.231 235.366, 474.782 231 C 477.361 228.525, 479.497 226.275, 479.528 226 C 480.301 219.085, 506.614 200.481, 528.223 191.572 C 545.385 184.496, 563.958 181.904, 580.042 184.339 L 585.583 185.178 591.645 177.839 C 609.572 156.133, 622.052 130.091, 627.052 103.961 C 629.251 92.465, 629.291 89.740, 627.222 92.232 M 405.453 109.250 L 401.500 113.500 405.750 109.547 C 408.087 107.373, 410 105.460, 410 105.297 C 410 104.540, 409.129 105.298, 405.453 109.250 M 235.633 191.161 C 227.965 202.883, 229.356 218.260, 238.912 227.415 L 241.891 230.270 245.195 227.490 C 250.047 223.409, 282.058 192.722, 281.757 192.440 C 281.616 192.308, 274.075 191.703, 265 191.095 C 255.925 190.488, 245.949 189.728, 242.831 189.407 C 237.664 188.874, 237.027 189.029, 235.633 191.161 M 448 190.519 C 438.375 191.231, 429.263 191.969, 427.750 192.157 C 425.220 192.473, 426.571 193.981, 444.622 211 C 467.447 232.521, 465.146 231.033, 469.097 226.828 C 477.365 218.029, 479.270 205.177, 473.890 194.500 C 470.878 188.524, 472.199 188.727, 448 190.519 M 607.500 218 C 610.209 220.750, 612.650 223, 612.925 223 C 613.200 223, 611.209 220.750, 608.500 218 C 605.791 215.250, 603.350 213, 603.075 213 C 602.800 213, 604.791 215.250, 607.500 218 M 400 231.057 C 374.665 236.240, 372.360 284.869, 395.522 325.500 C 400.844 334.836, 404.090 338.745, 401.749 333 C 400.964 331.075, 400.512 328.938, 400.745 328.250 C 400.977 327.563, 400.693 327, 400.115 327 C 399.536 327, 399.350 326.251, 399.701 325.336 C 400.128 324.225, 399.955 323.910, 399.181 324.388 C 398.444 324.844, 398.224 324.581, 398.575 323.665 C 398.879 322.873, 398.445 318.912, 397.612 314.863 C 393.686 295.791, 394.272 282.633, 398.900 285.929 C 402.871 288.756, 402.763 288.912, 402.624 280.591 C 402.477 271.788, 402.455 271.821, 407.623 273.132 C 416.641 275.421, 428.176 268.006, 429.617 258.994 C 430.352 254.397, 431.298 254.153, 439.809 256.361 C 446.828 258.181, 446.920 257.381, 440.622 249.332 C 429.434 235.033, 414.158 228.160, 400 231.057 M 512.500 249.040 C 504.483 250.287, 490.837 254.264, 483.736 257.423 L 477.973 259.987 488.101 279.549 L 498.230 299.111 495.043 304.238 C 493.290 307.057, 492.577 308.766, 493.458 308.035 C 505.036 298.426, 560.501 320.641, 586.745 345.399 C 594.551 352.762, 597.343 353.726, 617.211 355.925 C 645.341 359.039, 680.345 353.524, 700 342.884 L 703.500 340.989 699.932 341.571 C 684.763 344.049, 665.248 333.183, 629.328 302.257 C 577.902 257.982, 546.622 243.733, 512.500 249.040 M 216.500 313.758 C 134.174 319.064, 92.455 378.584, 111.086 464.151 C 124.704 526.695, 125.008 553.240, 112.471 585.250 C 111.913 586.676, 112.315 586.987, 114.643 586.930 C 117.141 586.868, 117.249 586.752, 115.500 586 C 114.400 585.527, 114.114 585.109, 114.866 585.070 C 117.825 584.918, 130.940 575.088, 139 566.982 C 159.444 546.419, 167.529 522.669, 171.503 471.500 C 177.350 396.217, 191.335 372.432, 238 358.407 C 242.125 357.167, 245.417 355.781, 245.316 355.326 C 245.214 354.872, 239.589 345.275, 232.816 334 L 220.500 313.500 216.500 313.758 M 570.958 346.250 C 573.410 348.863, 575.548 351, 575.708 351 C 576.459 351, 575.665 350.102, 571.250 345.958 L 566.500 341.500 570.958 346.250 M 310.437 357.750 L 313.374 361 324.937 360.786 L 336.500 360.572 325.018 360.251 C 314.153 359.947, 313.374 359.784, 310.518 357.215 L 307.500 354.500 310.437 357.750 M 68.296 356.744 C 72.583 356.932, 79.333 356.931, 83.296 356.742 C 87.258 356.552, 83.750 356.399, 75.500 356.400 C 67.250 356.401, 64.008 356.556, 68.296 356.744 M 463.481 357.030 C 463.103 357.642, 462.003 369.348, 461.036 383.044 L 459.278 407.945 453.889 412.717 C 450.925 415.342, 446.299 419.554, 443.609 422.078 L 438.718 426.666 443.575 440.583 C 447.861 452.864, 449.102 455.299, 454.126 461.297 C 473.730 484.698, 484.629 508.271, 485.705 529.596 L 486.265 540.692 497.299 547.551 C 529.662 567.667, 593.218 592.115, 598.756 586.577 C 599.074 586.260, 598.521 586, 597.528 586 C 591.668 586, 569.153 567.015, 561.328 555.474 C 546.975 534.307, 542.195 515.772, 537.999 465 C 532.337 396.505, 517.789 372.352, 474.139 358.977 C 470.487 357.859, 466.750 356.713, 465.834 356.431 C 464.918 356.149, 463.859 356.419, 463.481 357.030 M 307.272 364 C 307.272 366.475, 307.467 367.488, 307.706 366.250 C 307.944 365.012, 307.944 362.988, 307.706 361.750 C 307.467 360.512, 307.272 361.525, 307.272 364 M 341.872 366.250 C 343.063 367.768, 344.851 367.972, 355.372 367.785 L 367.500 367.570 355.562 367.252 C 348.176 367.055, 343.029 366.469, 342.062 365.717 C 340.687 364.646, 340.664 364.709, 341.872 366.250 M 275 368.500 C 277.475 369.825, 279.950 370.910, 280.500 370.910 C 281.050 370.910, 279.475 369.825, 277 368.500 C 274.525 367.175, 272.050 366.090, 271.500 366.090 C 270.950 366.090, 272.525 367.175, 275 368.500 M 284 379 L 271.500 379.595 284.809 379.797 C 293.477 379.929, 297.903 379.651, 297.500 379 C 297.160 378.450, 296.796 378.091, 296.691 378.203 C 296.586 378.314, 290.875 378.673, 284 379 M 283.500 396 L 270.500 396.592 284.309 396.796 C 293.311 396.929, 297.903 396.652, 297.500 396 C 297.160 395.450, 296.796 395.092, 296.691 395.204 C 296.586 395.316, 290.650 395.675, 283.500 396 M 440.505 457.994 C 439.512 459.091, 432.217 465.268, 424.292 471.720 C 412.550 481.282, 409.985 483.826, 410.427 485.476 C 419.927 520.924, 398.003 577.013, 364.727 602.394 L 361 605.237 361.006 639.369 C 361.009 658.141, 361.300 677.197, 361.652 681.716 L 362.291 689.932 364.988 685.716 C 369.044 679.375, 373.308 674.525, 395.948 650.500 C 483.331 557.774, 492.433 524.007, 446.286 463.750 C 443.864 460.587, 442.160 457.549, 442.500 457 C 443.536 455.324, 442.416 455.882, 440.505 457.994 M 341.466 488.678 C 336.535 492.846, 330.593 497.824, 328.262 499.739 L 324.023 503.222 312.556 493.611 C 299.003 482.252, 300.422 482.655, 298.945 489.750 C 291.924 523.484, 311.322 572.933, 341.998 599.498 C 348.434 605.072, 355.257 509.846, 350.466 481.300 C 350.448 481.190, 346.398 484.510, 341.466 488.678 M 236.272 530 C 236.272 532.475, 236.467 533.487, 236.706 532.250 C 236.944 531.013, 236.944 528.987, 236.706 527.750 C 236.467 526.513, 236.272 527.525, 236.272 530 M 360.438 565.500 C 360.437 580.350, 360.576 586.564, 360.747 579.310 C 360.918 572.055, 360.918 559.905, 360.748 552.310 C 360.578 544.714, 360.438 550.650, 360.438 565.500 M 295.958 631.250 C 300.102 635.665, 301 636.459, 301 635.708 C 301 635.548, 298.863 633.410, 296.250 630.958 L 291.500 626.500 295.958 631.250 M 311.500 648 C 315.320 651.850, 318.671 655, 318.946 655 C 319.221 655, 316.320 651.850, 312.500 648 C 308.680 644.150, 305.329 641, 305.054 641 C 304.779 641, 307.680 644.150, 311.500 648 M 347.792 671.001 C 347.631 681.452, 347.837 690.002, 348.250 690.001 C 348.663 690, 349 681.450, 349 671 C 349 660.550, 348.794 652, 348.542 652 C 348.290 652, 347.952 660.550, 347.792 671.001 M 328.500 666 C 331.209 668.750, 333.650 671, 333.925 671 C 334.200 671, 332.209 668.750, 329.500 666 C 326.791 663.250, 324.350 661, 324.075 661 C 323.800 661, 325.791 663.250, 328.500 666" stroke="none" fill="#22b473" fill-rule="evenodd"/><path d="M 0 354.001 L 0 708.003 354.250 707.751 L 708.500 707.500 708.751 353.750 L 709.003 0 354.501 0 L 0 0 0 354.001 M 0.494 354.500 C 0.494 549.200, 0.609 628.999, 0.750 531.831 C 0.891 434.663, 0.891 275.363, 0.750 177.831 C 0.609 80.299, 0.494 159.800, 0.494 354.500 M 345.500 33.167 C 329.427 43.682, 310.001 70.938, 304.874 90.166 L 303.630 94.833 309.165 100.811 C 325.718 118.691, 338.558 137.379, 344.966 152.917 C 350.490 166.313, 346.812 166.211, 339.822 152.775 C 321.829 118.190, 277.485 81.740, 230.612 63.006 C 214.593 56.603, 214.817 53.600, 228.569 90.411 L 240.350 121.944 247.836 125.499 C 266.863 134.535, 295.118 162.719, 288.964 166.523 C 288.394 166.875, 284.354 163.566, 279.988 159.170 C 256.466 135.489, 230.603 125.929, 164.546 116.496 C 111.581 108.933, 99.581 105.641, 86.082 94.971 L 80.782 90.781 81.489 96.141 C 85.151 123.894, 99.079 154.667, 118.573 178.075 L 124.881 185.651 132.691 184.260 C 156.477 180.024, 189.266 190.819, 217.700 212.246 C 221.898 215.410, 228.141 223, 226.545 223 C 226.333 223, 222.410 220.673, 217.829 217.828 C 150.323 175.909, 114.525 187.934, 65.489 269 C 38.828 313.076, 26.708 327.979, 9.214 338.197 L 4.928 340.700 12.080 343.898 C 39.389 356.109, 78.314 360.340, 106.730 354.186 L 116.959 351.970 124.019 345.118 C 146.778 323.026, 175.966 309.867, 207.500 307.483 L 216.500 306.802 218.250 309.805 C 220.645 313.915, 220.590 314, 215.572 314 C 138.542 314, 92.727 379.838, 111.086 464.151 C 123.969 523.320, 124.835 548.565, 114.986 577.873 C 111.466 588.347, 110.805 587.802, 123.754 585.091 C 150.970 579.392, 181.464 566.798, 210.165 549.403 C 224.967 540.432, 224.105 541.553, 224.477 530.795 C 225.223 509.222, 235.601 486.684, 256.728 460.750 C 262.626 453.510, 263.741 452.952, 266.410 455.900 C 268.057 457.720, 267.862 458.162, 261.815 466.357 C 219.556 523.618, 228.503 559.770, 305 640.838 C 331.796 669.236, 340.770 679.269, 344.145 684.601 C 345.990 687.518, 347.837 689.926, 348.250 689.952 C 348.663 689.978, 349.052 672.563, 349.116 651.250 C 349.582 495.772, 350.181 478.309, 355.059 478.032 C 359.642 477.771, 359.447 474.157, 360.239 574.169 C 360.645 625.501, 361.253 672.579, 361.590 678.787 L 362.202 690.073 364.943 685.787 C 369.047 679.370, 373.254 674.582, 395.948 650.500 C 483.397 557.703, 492.448 524.020, 446.170 463.599 L 441.650 457.698 444.379 455.350 L 447.108 453.003 451.225 457.752 C 472.732 482.556, 484.583 507.248, 485.707 529.596 L 486.265 540.692 497.299 547.551 C 529.279 567.429, 579.238 587, 598.003 587 C 598.434 587, 597.512 583.718, 595.954 579.707 C 585.564 552.948, 585.829 528.316, 597.081 475.242 C 610.996 409.607, 607.491 387.511, 577.680 352.925 C 558.109 330.220, 530.245 316.557, 498.985 314.338 C 494.043 313.987, 490 313.500, 490 313.255 C 490 313.009, 490.975 311.439, 492.167 309.765 L 494.335 306.721 503.917 307.377 C 533.811 309.421, 562.631 322.651, 586.745 345.399 C 593.148 351.439, 594.260 352.082, 600.604 353.408 C 634.324 360.461, 674.037 356.168, 700.842 342.573 L 705.184 340.371 698.478 336.449 C 683.485 327.681, 670.346 311.258, 645.217 269.875 C 594.782 186.819, 556.198 174.664, 488.186 220.408 C 478.374 227.007, 478.494 226.972, 481.127 222.509 C 493.540 201.470, 549.801 179.760, 580.042 184.339 L 585.583 185.178 591.645 177.839 C 609.436 156.298, 621.993 130.209, 626.961 104.465 C 629.729 90.123, 629.746 90.203, 624.750 94.495 C 612.762 104.794, 593.982 109.983, 545 116.533 C 479.967 125.228, 449.378 137.164, 426.558 162.750 C 422.403 167.408, 421.521 167.799, 420.597 165.391 C 418.222 159.204, 444.695 133.795, 462.156 125.503 L 469.634 121.952 481.439 90.431 C 495.167 53.775, 495.279 56.687, 480.360 62.535 C 433.112 81.056, 386.933 119.326, 369.134 154.712 C 366.091 160.762, 362 164.753, 362 161.673 C 362 152.433, 381.864 121.302, 400.835 100.811 L 406.370 94.833 405.126 90.166 C 399.999 70.938, 380.573 43.682, 364.500 33.167 L 359.500 29.896 359 97.198 L 358.500 164.500 355 164.500 L 351.500 164.500 351 97.198 L 350.500 29.896 345.500 33.167 M 308.334 172.218 C 306.079 176.223, 294.731 196.238, 283.117 216.695 C 271.503 237.152, 262 254.109, 262 254.377 C 262 254.645, 264.244 253.355, 266.986 251.510 C 312.614 220.804, 331.846 266.011, 302.584 335.190 C 297.883 346.305, 278.980 348.350, 259.223 339.881 C 253.788 337.551, 253.703 337.295, 263.317 352.321 C 267.477 358.823, 271.020 364.508, 271.190 364.954 C 271.361 365.400, 277.575 368.855, 285 372.632 L 298.500 379.500 284.750 379.778 C 274.632 379.983, 271 380.384, 271 381.295 C 271 381.977, 277.188 385.677, 284.750 389.517 L 298.500 396.500 284.750 396.778 L 271 397.056 271 403.088 C 271 409.094, 271.029 409.153, 277.970 417.396 L 284.940 425.673 285.220 439.068 L 285.500 452.463 303 455.634 L 320.500 458.804 337.745 449.652 L 354.989 440.500 354.995 430.250 C 354.998 424.613, 354.718 420, 354.374 420 C 345.940 420, 333.470 423.769, 322.558 429.616 C 315.990 433.136, 310.315 435.675, 309.947 435.258 C 308.740 433.889, 301.690 415.977, 302.170 415.497 C 302.427 415.239, 309.596 415.778, 318.100 416.694 L 333.561 418.360 343.709 410.430 C 349.290 406.069, 353.889 402.210, 353.928 401.856 C 353.968 401.502, 343.748 395.759, 331.217 389.094 C 311.434 378.572, 308.407 376.650, 308.230 374.502 C 308.117 373.142, 307.580 368.112, 307.036 363.324 C 305.865 353.024, 306.040 352.677, 310.313 356.818 C 313.590 359.995, 313.613 360, 324.389 360 L 335.182 360 339.271 363.500 L 343.360 367 355.484 367 L 367.608 367 371 363.500 L 374.392 360 385.493 360 L 396.594 360 400.370 356.133 C 403.410 353.020, 404.083 351.646, 403.823 349.090 L 403.500 345.915 400 348.917 C 396.556 351.871, 396.316 351.919, 384.946 351.959 L 373.392 352 370 355.500 C 366.890 358.708, 366.124 359, 360.804 359 L 355 359 355 273.155 L 355 187.310 334.752 176.405 C 323.616 170.407, 314.039 165.373, 313.469 165.218 C 312.900 165.064, 310.589 168.214, 308.334 172.218 M 400 231.057 C 374.665 236.240, 372.360 284.869, 395.522 325.500 C 401.493 335.975, 403.888 338.401, 400.949 331 C 373.576 262.069, 392.568 222.079, 438.451 252.032 C 446.812 257.490, 446.874 257.359, 440.080 248.625 C 429.574 235.122, 413.840 228.225, 400 231.057" stroke="none" fill="#fafbfb" fill-rule="evenodd"/></svg>